<?xml version="1.0" encoding="UTF-8" standalone="no"?>
<!DOCTYPE svg PUBLIC "-//W3C//DTD SVG 1.1//EN"
 "http://www.w3.org/Graphics/SVG/1.1/DTD/svg11.dtd">
<!-- Generated by graphviz version 2.24.0 (20090616.2323)
 -->
<!-- Title: EmailSignupModelFSM Pages: 1 -->
<svg width="1372pt" height="542pt"
 viewBox="0.00 0.00 1372.00 542.00" xmlns="http://www.w3.org/2000/svg" xmlns:xlink="http://www.w3.org/1999/xlink">
<g id="graph1" class="graph" transform="scale(1 1) rotate(0) translate(4 538)">
<title>EmailSignupModelFSM</title>
<polygon fill="white" stroke="white" points="-4,5 -4,-538 1369,-538 1369,5 -4,5"/>
<!-- 0 -->
<g id="node1" class="node"><title>0</title>
<a xlink:title="{&#39;EmailSignupModel&#39;: {&#39;activeEmails&#39;: [], &#39;mode&#39;: &#39;Inactive&#39;, &#39;pendingEmails&#39;: []}}">
<ellipse fill="lightgray" stroke="black" cx="551" cy="-512" rx="27" ry="18"/>
<ellipse fill="none" stroke="black" cx="551" cy="-512" rx="31" ry="22"/>
<text text-anchor="middle" x="551" y="-507.9" font-family="Times Roman,serif" font-size="14.00">0</text>
</a>
</g>
<!-- 1 -->
<g id="node2" class="node"><title>1</title>
<a xlink:title="{&#39;EmailSignupModel&#39;: {&#39;activeEmails&#39;: [], &#39;mode&#39;: &#39;Running&#39;, &#39;pendingEmails&#39;: []}}">
<ellipse fill="white" stroke="black" cx="551" cy="-414" rx="27" ry="18"/>
<ellipse fill="none" stroke="black" cx="551" cy="-414" rx="31" ry="22"/>
<text text-anchor="middle" x="551" y="-409.9" font-family="Times Roman,serif" font-size="14.00">1</text>
</a>
</g>
<!-- 0&#45;&gt;1 -->
<g id="edge2" class="edge"><title>0&#45;&gt;1</title>
<a xlink:title="Initialize()">
<path fill="none" stroke="black" d="M551,-489.762C551,-476.982 551,-460.697 551,-446.504"/>
<polygon fill="black" stroke="black" points="554.5,-446.15 551,-436.15 547.5,-446.15 554.5,-446.15"/>
</a>
<text text-anchor="middle" x="587.5" y="-458.9" font-family="Times Roman,serif" font-size="14.00">Initialize()</text>
</g>
<!-- 2 -->
<g id="node3" class="node"><title>2</title>
<a xlink:title="{&#39;EmailSignupModel&#39;: {&#39;activeEmails&#39;: [], &#39;mode&#39;: &#39;Running&#39;, &#39;pendingEmails&#39;: [&#39;OleBrumm&#39;]}}">
<ellipse fill="white" stroke="black" cx="427" cy="-316" rx="27" ry="18"/>
<ellipse fill="none" stroke="black" cx="427" cy="-316" rx="31" ry="22"/>
<text text-anchor="middle" x="427" y="-311.9" font-family="Times Roman,serif" font-size="14.00">2</text>
</a>
</g>
<!-- 1&#45;&gt;2 -->
<g id="edge4" class="edge"><title>1&#45;&gt;2</title>
<a xlink:title="Recv(&#39;OleBrumm&#39;,)/&#39;pending&#39;">
<path fill="none" stroke="black" d="M521.468,-407.096C491.835,-399.57 449.043,-386.873 438,-374 431.891,-366.879 428.745,-357.433 427.223,-348.237"/>
<polygon fill="black" stroke="black" points="430.681,-347.662 426.124,-338.097 423.722,-348.416 430.681,-347.662"/>
</a>
<text text-anchor="middle" x="542" y="-360.9" font-family="Times Roman,serif" font-size="14.00">Recv(&#39;OleBrumm&#39;,)/&#39;pending&#39;</text>
</g>
<!-- 3 -->
<g id="node4" class="node"><title>3</title>
<a xlink:title="{&#39;EmailSignupModel&#39;: {&#39;activeEmails&#39;: [], &#39;mode&#39;: &#39;Running&#39;, &#39;pendingEmails&#39;: [&#39;VinniPuhh&#39;]}}">
<ellipse fill="white" stroke="black" cx="682" cy="-316" rx="27" ry="18"/>
<ellipse fill="none" stroke="black" cx="682" cy="-316" rx="31" ry="22"/>
<text text-anchor="middle" x="682" y="-311.9" font-family="Times Roman,serif" font-size="14.00">3</text>
</a>
</g>
<!-- 1&#45;&gt;3 -->
<g id="edge6" class="edge"><title>1&#45;&gt;3</title>
<a xlink:title="Recv(&#39;VinniPuhh&#39;,)/&#39;pending&#39;">
<path fill="none" stroke="black" d="M580.54,-406.696C600.704,-400.56 627.086,-390.156 646,-374 654.969,-366.339 662.406,-355.867 668.146,-345.929"/>
<polygon fill="black" stroke="black" points="671.269,-347.511 672.936,-337.048 665.108,-344.188 671.269,-347.511"/>
</a>
<text text-anchor="middle" x="762" y="-360.9" font-family="Times Roman,serif" font-size="14.00">Recv(&#39;VinniPuhh&#39;,)/&#39;pending&#39;</text>
</g>
<!-- 4 -->
<g id="node5" class="node"><title>4</title>
<a xlink:title="{&#39;EmailSignupModel&#39;: {&#39;activeEmails&#39;: [&#39;OleBrumm&#39;], &#39;mode&#39;: &#39;Running&#39;, &#39;pendingEmails&#39;: []}}">
<ellipse fill="white" stroke="black" cx="31" cy="-218" rx="27" ry="18"/>
<ellipse fill="none" stroke="black" cx="31" cy="-218" rx="31" ry="22"/>
<text text-anchor="middle" x="31" y="-213.9" font-family="Times Roman,serif" font-size="14.00">4</text>
</a>
</g>
<!-- 2&#45;&gt;4 -->
<g id="edge8" class="edge"><title>2&#45;&gt;4</title>
<a xlink:title="Recv(&#39;OleBrumm&#39;,)/&#39;activate&#39;">
<path fill="none" stroke="black" d="M396.508,-311.313C355.433,-304.745 280.186,-291.814 217,-276 164.89,-262.958 105.854,-243.777 68.5389,-231.092"/>
<polygon fill="black" stroke="black" points="69.6706,-227.78 59.076,-227.857 67.4056,-234.404 69.6706,-227.78"/>
</a>
<text text-anchor="middle" x="320" y="-262.9" font-family="Times Roman,serif" font-size="14.00">Recv(&#39;OleBrumm&#39;,)/&#39;activate&#39;</text>
</g>
<!-- 5 -->
<g id="node6" class="node"><title>5</title>
<a xlink:title="{&#39;EmailSignupModel&#39;: {&#39;activeEmails&#39;: [], &#39;mode&#39;: &#39;Running&#39;, &#39;pendingEmails&#39;: [&#39;OleBrumm&#39;, &#39;VinniPuhh&#39;]}}">
<ellipse fill="white" stroke="black" cx="427" cy="-218" rx="27" ry="18"/>
<ellipse fill="none" stroke="black" cx="427" cy="-218" rx="31" ry="22"/>
<text text-anchor="middle" x="427" y="-213.9" font-family="Times Roman,serif" font-size="14.00">5</text>
</a>
</g>
<!-- 2&#45;&gt;5 -->
<g id="edge10" class="edge"><title>2&#45;&gt;5</title>
<a xlink:title="Recv(&#39;VinniPuhh&#39;,)/&#39;pending&#39;">
<path fill="none" stroke="black" d="M427,-293.762C427,-280.982 427,-264.697 427,-250.504"/>
<polygon fill="black" stroke="black" points="430.5,-250.15 427,-240.15 423.5,-250.15 430.5,-250.15"/>
</a>
<text text-anchor="middle" x="529" y="-262.9" font-family="Times Roman,serif" font-size="14.00">Recv(&#39;VinniPuhh&#39;,)/&#39;pending&#39;</text>
</g>
<!-- 6 -->
<g id="node7" class="node"><title>6</title>
<a xlink:title="{&#39;EmailSignupModel&#39;: {&#39;activeEmails&#39;: [&#39;VinniPuhh&#39;], &#39;mode&#39;: &#39;Running&#39;, &#39;pendingEmails&#39;: []}}">
<ellipse fill="white" stroke="black" cx="1164" cy="-218" rx="27" ry="18"/>
<ellipse fill="none" stroke="black" cx="1164" cy="-218" rx="31" ry="22"/>
<text text-anchor="middle" x="1164" y="-213.9" font-family="Times Roman,serif" font-size="14.00">6</text>
</a>
</g>
<!-- 3&#45;&gt;6 -->
<g id="edge12" class="edge"><title>3&#45;&gt;6</title>
<a xlink:title="Recv(&#39;VinniPuhh&#39;,)/&#39;activate&#39;">
<path fill="none" stroke="black" d="M712.239,-310.541C753.41,-303.053 829.381,-289.035 894,-276 975.952,-259.469 1071.53,-238.548 1124.15,-226.888"/>
<polygon fill="black" stroke="black" points="1125.08,-230.266 1134.09,-224.683 1123.56,-223.433 1125.08,-230.266"/>
</a>
<text text-anchor="middle" x="1076.5" y="-262.9" font-family="Times Roman,serif" font-size="14.00">Recv(&#39;VinniPuhh&#39;,)/&#39;activate&#39;</text>
</g>
<!-- 7 -->
<g id="node8" class="node"><title>7</title>
<a xlink:title="{&#39;EmailSignupModel&#39;: {&#39;activeEmails&#39;: [], &#39;mode&#39;: &#39;Running&#39;, &#39;pendingEmails&#39;: [&#39;VinniPuhh&#39;, &#39;OleBrumm&#39;]}}">
<ellipse fill="white" stroke="black" cx="682" cy="-218" rx="27" ry="18"/>
<ellipse fill="none" stroke="black" cx="682" cy="-218" rx="31" ry="22"/>
<text text-anchor="middle" x="682" y="-213.9" font-family="Times Roman,serif" font-size="14.00">7</text>
</a>
</g>
<!-- 3&#45;&gt;7 -->
<g id="edge14" class="edge"><title>3&#45;&gt;7</title>
<a xlink:title="Recv(&#39;OleBrumm&#39;,)/&#39;pending&#39;">
<path fill="none" stroke="black" d="M682,-293.762C682,-280.982 682,-264.697 682,-250.504"/>
<polygon fill="black" stroke="black" points="685.5,-250.15 682,-240.15 678.5,-250.15 685.5,-250.15"/>
</a>
<text text-anchor="middle" x="786" y="-262.9" font-family="Times Roman,serif" font-size="14.00">Recv(&#39;OleBrumm&#39;,)/&#39;pending&#39;</text>
</g>
<!-- 8 -->
<g id="node9" class="node"><title>8</title>
<a xlink:title="{&#39;EmailSignupModel&#39;: {&#39;activeEmails&#39;: [&#39;OleBrumm&#39;], &#39;mode&#39;: &#39;Running&#39;, &#39;pendingEmails&#39;: [&#39;VinniPuhh&#39;]}}">
<ellipse fill="white" stroke="black" cx="256" cy="-120" rx="27" ry="18"/>
<ellipse fill="none" stroke="black" cx="256" cy="-120" rx="31" ry="22"/>
<text text-anchor="middle" x="256" y="-115.9" font-family="Times Roman,serif" font-size="14.00">8</text>
</a>
</g>
<!-- 4&#45;&gt;8 -->
<g id="edge16" class="edge"><title>4&#45;&gt;8</title>
<a xlink:title="Recv(&#39;VinniPuhh&#39;,)/&#39;pending&#39;">
<path fill="none" stroke="black" d="M29.956,-195.916C30.608,-183.721 33.608,-169.221 43,-160 66.8359,-136.598 160.072,-126.416 214.973,-122.374"/>
<polygon fill="black" stroke="black" points="215.35,-125.856 225.081,-121.667 214.861,-118.873 215.35,-125.856"/>
</a>
<text text-anchor="middle" x="145" y="-164.9" font-family="Times Roman,serif" font-size="14.00">Recv(&#39;VinniPuhh&#39;,)/&#39;pending&#39;</text>
</g>
<!-- 5&#45;&gt;8 -->
<g id="edge18" class="edge"><title>5&#45;&gt;8</title>
<a xlink:title="Recv(&#39;OleBrumm&#39;,)/&#39;activate&#39;">
<path fill="none" stroke="black" d="M396.21,-215.213C352.072,-210.513 274.221,-199.363 257,-178 251.168,-170.765 249.41,-161.211 249.547,-151.948"/>
<polygon fill="black" stroke="black" points="253.054,-152.009 250.391,-141.755 246.078,-151.432 253.054,-152.009"/>
</a>
<text text-anchor="middle" x="360" y="-164.9" font-family="Times Roman,serif" font-size="14.00">Recv(&#39;OleBrumm&#39;,)/&#39;activate&#39;</text>
</g>
<!-- 9 -->
<g id="node10" class="node"><title>9</title>
<a xlink:title="{&#39;EmailSignupModel&#39;: {&#39;activeEmails&#39;: [&#39;VinniPuhh&#39;], &#39;mode&#39;: &#39;Running&#39;, &#39;pendingEmails&#39;: [&#39;OleBrumm&#39;]}}">
<ellipse fill="white" stroke="black" cx="940" cy="-120" rx="27" ry="18"/>
<ellipse fill="none" stroke="black" cx="940" cy="-120" rx="31" ry="22"/>
<text text-anchor="middle" x="940" y="-115.9" font-family="Times Roman,serif" font-size="14.00">9</text>
</a>
</g>
<!-- 5&#45;&gt;9 -->
<g id="edge20" class="edge"><title>5&#45;&gt;9</title>
<a xlink:title="Recv(&#39;VinniPuhh&#39;,)/&#39;activate&#39;">
<path fill="none" stroke="black" d="M458.024,-215.658C518.815,-210.692 651.232,-197.899 692,-178 702.453,-172.898 700.606,-165.223 711,-160 743.251,-143.793 842.228,-130.707 898.944,-124.292"/>
<polygon fill="black" stroke="black" points="899.464,-127.756 909.017,-123.172 898.691,-120.798 899.464,-127.756"/>
</a>
<text text-anchor="middle" x="812.5" y="-164.9" font-family="Times Roman,serif" font-size="14.00">Recv(&#39;VinniPuhh&#39;,)/&#39;activate&#39;</text>
</g>
<!-- 6&#45;&gt;9 -->
<g id="edge22" class="edge"><title>6&#45;&gt;9</title>
<a xlink:title="Recv(&#39;OleBrumm&#39;,)/&#39;pending&#39;">
<path fill="none" stroke="black" d="M1161.77,-196C1159.36,-183.677 1154.36,-169.021 1144,-160 1120.14,-139.231 1033.29,-128.149 980.91,-123.226"/>
<polygon fill="black" stroke="black" points="981.198,-119.738 970.923,-122.323 980.567,-126.71 981.198,-119.738"/>
</a>
<text text-anchor="middle" x="1260" y="-164.9" font-family="Times Roman,serif" font-size="14.00">Recv(&#39;OleBrumm&#39;,)/&#39;pending&#39;</text>
</g>
<!-- 7&#45;&gt;8 -->
<g id="edge24" class="edge"><title>7&#45;&gt;8</title>
<a xlink:title="Recv(&#39;OleBrumm&#39;,)/&#39;activate&#39;">
<path fill="none" stroke="black" d="M651.096,-216.087C611.285,-212.657 540.702,-203.265 486,-178 474.216,-172.557 474.813,-165.381 463,-160 408.996,-135.398 340.368,-125.914 297.301,-122.267"/>
<polygon fill="black" stroke="black" points="297.433,-118.767 287.191,-121.479 296.889,-125.745 297.433,-118.767"/>
</a>
<text text-anchor="middle" x="589" y="-164.9" font-family="Times Roman,serif" font-size="14.00">Recv(&#39;OleBrumm&#39;,)/&#39;activate&#39;</text>
</g>
<!-- 7&#45;&gt;9 -->
<g id="edge26" class="edge"><title>7&#45;&gt;9</title>
<a xlink:title="Recv(&#39;VinniPuhh&#39;,)/&#39;activate&#39;">
<path fill="none" stroke="black" d="M713.097,-216.5C769.841,-213.167 887.183,-203.335 918,-178 925.965,-171.452 931.049,-161.689 934.294,-152.032"/>
<polygon fill="black" stroke="black" points="937.736,-152.719 937.052,-142.146 930.993,-150.838 937.736,-152.719"/>
</a>
<text text-anchor="middle" x="1031.5" y="-164.9" font-family="Times Roman,serif" font-size="14.00">Recv(&#39;VinniPuhh&#39;,)/&#39;activate&#39;</text>
</g>
<!-- 10 -->
<g id="node11" class="node"><title>10</title>
<a xlink:title="{&#39;EmailSignupModel&#39;: {&#39;activeEmails&#39;: [&#39;OleBrumm&#39;, &#39;VinniPuhh&#39;], &#39;mode&#39;: &#39;Running&#39;, &#39;pendingEmails&#39;: []}}">
<ellipse fill="lightgreen" stroke="black" cx="256" cy="-22" rx="27" ry="18"/>
<ellipse fill="none" stroke="black" cx="256" cy="-22" rx="31" ry="22"/>
<text text-anchor="middle" x="256" y="-17.9" font-family="Times Roman,serif" font-size="14.00">10</text>
</a>
</g>
<!-- 8&#45;&gt;10 -->
<g id="edge28" class="edge"><title>8&#45;&gt;10</title>
<a xlink:title="Recv(&#39;VinniPuhh&#39;,)/&#39;activate&#39;">
<path fill="none" stroke="black" d="M256,-97.7623C256,-84.9818 256,-68.6973 256,-54.5036"/>
<polygon fill="black" stroke="black" points="259.5,-54.1497 256,-44.1497 252.5,-54.1497 259.5,-54.1497"/>
</a>
<text text-anchor="middle" x="357.5" y="-66.9" font-family="Times Roman,serif" font-size="14.00">Recv(&#39;VinniPuhh&#39;,)/&#39;activate&#39;</text>
</g>
<!-- 11 -->
<g id="node12" class="node"><title>11</title>
<a xlink:title="{&#39;EmailSignupModel&#39;: {&#39;activeEmails&#39;: [&#39;VinniPuhh&#39;, &#39;OleBrumm&#39;], &#39;mode&#39;: &#39;Running&#39;, &#39;pendingEmails&#39;: []}}">
<ellipse fill="lightgreen" stroke="black" cx="940" cy="-22" rx="27" ry="18"/>
<ellipse fill="none" stroke="black" cx="940" cy="-22" rx="31" ry="22"/>
<text text-anchor="middle" x="940" y="-17.9" font-family="Times Roman,serif" font-size="14.00">11</text>
</a>
</g>
<!-- 9&#45;&gt;11 -->
<g id="edge30" class="edge"><title>9&#45;&gt;11</title>
<a xlink:title="Recv(&#39;OleBrumm&#39;,)/&#39;activate&#39;">
<path fill="none" stroke="black" d="M940,-97.7623C940,-84.9818 940,-68.6973 940,-54.5036"/>
<polygon fill="black" stroke="black" points="943.5,-54.1497 940,-44.1497 936.5,-54.1497 943.5,-54.1497"/>
</a>
<text text-anchor="middle" x="1043" y="-66.9" font-family="Times Roman,serif" font-size="14.00">Recv(&#39;OleBrumm&#39;,)/&#39;activate&#39;</text>
</g>
</g>
</svg>
