<?xml version="1.0" encoding="UTF-8" standalone="no"?>
<!DOCTYPE svg PUBLIC "-//W3C//DTD SVG 1.1//EN"
 "http://www.w3.org/Graphics/SVG/1.1/DTD/svg11.dtd">
<!-- Generated by graphviz version 2.24.0 (20090616.2323)
 -->
<!-- Title: EmailSignupModelFSM Pages: 1 -->
<svg width="243pt" height="346pt"
 viewBox="0.00 0.00 243.00 346.00" xmlns="http://www.w3.org/2000/svg" xmlns:xlink="http://www.w3.org/1999/xlink">
<g id="graph1" class="graph" transform="scale(1 1) rotate(0) translate(4 342)">
<title>EmailSignupModelFSM</title>
<polygon fill="white" stroke="white" points="-4,5 -4,-342 240,-342 240,5 -4,5"/>
<!-- 0 -->
<g id="node1" class="node"><title>0</title>
<a xlink:title="{&#39;EmailSignupModel&#39;: {&#39;activeEmails&#39;: set([]), &#39;mode&#39;: &#39;Inactive&#39;, &#39;pendingEmails&#39;: set([])}, &#39;foo&#39;: {}}">
<ellipse fill="lightgray" stroke="black" cx="31" cy="-316" rx="27" ry="18"/>
<ellipse fill="none" stroke="black" cx="31" cy="-316" rx="31" ry="22"/>
<text text-anchor="middle" x="31" y="-311.9" font-family="Times Roman,serif" font-size="14.00">0</text>
</a>
</g>
<!-- 0&#45;&gt;0 -->
<g id="edge4" class="edge"><title>0&#45;&gt;0</title>
<a xlink:title="GET()">
<path fill="none" stroke="black" d="M59.6885,-324.965C70.7806,-325.363 80,-322.375 80,-316 80,-311.717 75.8382,-308.962 69.7429,-307.737"/>
<polygon fill="black" stroke="black" points="69.9079,-304.24 59.6885,-307.035 69.4205,-311.223 69.9079,-304.24"/>
</a>
<text text-anchor="middle" x="100.5" y="-311.9" font-family="Times Roman,serif" font-size="14.00">GET()</text>
</g>
<!-- 1 -->
<g id="node2" class="node"><title>1</title>
<a xlink:title="{&#39;EmailSignupModel&#39;: {&#39;activeEmails&#39;: set([]), &#39;mode&#39;: &#39;Running&#39;, &#39;pendingEmails&#39;: set([])}, &#39;foo&#39;: {}}">
<ellipse fill="white" stroke="black" cx="31" cy="-218" rx="27" ry="18"/>
<ellipse fill="none" stroke="black" cx="31" cy="-218" rx="31" ry="22"/>
<text text-anchor="middle" x="31" y="-213.9" font-family="Times Roman,serif" font-size="14.00">1</text>
</a>
</g>
<!-- 0&#45;&gt;1 -->
<g id="edge2" class="edge"><title>0&#45;&gt;1</title>
<a xlink:title="Initialize()">
<path fill="none" stroke="black" d="M31,-293.762C31,-280.982 31,-264.697 31,-250.504"/>
<polygon fill="black" stroke="black" points="34.5001,-250.15 31,-240.15 27.5001,-250.15 34.5001,-250.15"/>
</a>
<text text-anchor="middle" x="67.5" y="-262.9" font-family="Times Roman,serif" font-size="14.00">Initialize()</text>
</g>
<!-- 1&#45;&gt;1 -->
<g id="edge6" class="edge"><title>1&#45;&gt;1</title>
<a xlink:title="GET()">
<path fill="none" stroke="black" d="M59.6885,-226.965C70.7806,-227.363 80,-224.375 80,-218 80,-213.717 75.8382,-210.962 69.7429,-209.737"/>
<polygon fill="black" stroke="black" points="69.9079,-206.24 59.6885,-209.035 69.4205,-213.223 69.9079,-206.24"/>
</a>
<text text-anchor="middle" x="100.5" y="-213.9" font-family="Times Roman,serif" font-size="14.00">GET()</text>
</g>
<!-- 2 -->
<g id="node3" class="node"><title>2</title>
<a xlink:title="{&#39;EmailSignupModel&#39;: {&#39;activeEmails&#39;: set([]), &#39;mode&#39;: &#39;Running&#39;, &#39;pendingEmails&#39;: set([&#39;VinniPuhh&#39;])}, &#39;foo&#39;: {}}">
<ellipse fill="white" stroke="black" cx="31" cy="-120" rx="27" ry="18"/>
<ellipse fill="none" stroke="black" cx="31" cy="-120" rx="31" ry="22"/>
<text text-anchor="middle" x="31" y="-115.9" font-family="Times Roman,serif" font-size="14.00">2</text>
</a>
</g>
<!-- 1&#45;&gt;2 -->
<g id="edge8" class="edge"><title>1&#45;&gt;2</title>
<a xlink:title="Recv(&#39;VinniPuhh&#39;,)/&#39;pending&#39;">
<path fill="none" stroke="black" d="M31,-195.762C31,-182.982 31,-166.697 31,-152.504"/>
<polygon fill="black" stroke="black" points="34.5001,-152.15 31,-142.15 27.5001,-152.15 34.5001,-152.15"/>
</a>
<text text-anchor="middle" x="133" y="-164.9" font-family="Times Roman,serif" font-size="14.00">Recv(&#39;VinniPuhh&#39;,)/&#39;pending&#39;</text>
</g>
<!-- 2&#45;&gt;2 -->
<g id="edge12" class="edge"><title>2&#45;&gt;2</title>
<a xlink:title="GET()">
<path fill="none" stroke="black" d="M59.6885,-128.965C70.7806,-129.363 80,-126.375 80,-120 80,-115.717 75.8382,-112.962 69.7429,-111.737"/>
<polygon fill="black" stroke="black" points="69.9079,-108.24 59.6885,-111.035 69.4205,-115.223 69.9079,-108.24"/>
</a>
<text text-anchor="middle" x="100.5" y="-115.9" font-family="Times Roman,serif" font-size="14.00">GET()</text>
</g>
<!-- 3 -->
<g id="node4" class="node"><title>3</title>
<a xlink:title="{&#39;EmailSignupModel&#39;: {&#39;activeEmails&#39;: set([&#39;VinniPuhh&#39;]), &#39;mode&#39;: &#39;Running&#39;, &#39;pendingEmails&#39;: set([])}, &#39;foo&#39;: {}}">
<ellipse fill="white" stroke="black" cx="31" cy="-22" rx="27" ry="18"/>
<ellipse fill="none" stroke="black" cx="31" cy="-22" rx="31" ry="22"/>
<text text-anchor="middle" x="31" y="-17.9" font-family="Times Roman,serif" font-size="14.00">3</text>
</a>
</g>
<!-- 2&#45;&gt;3 -->
<g id="edge10" class="edge"><title>2&#45;&gt;3</title>
<a xlink:title="Recv(&#39;VinniPuhh&#39;,)/&#39;activate&#39;">
<path fill="none" stroke="black" d="M31,-97.7623C31,-84.9818 31,-68.6973 31,-54.5036"/>
<polygon fill="black" stroke="black" points="34.5001,-54.1497 31,-44.1497 27.5001,-54.1497 34.5001,-54.1497"/>
</a>
<text text-anchor="middle" x="132.5" y="-66.9" font-family="Times Roman,serif" font-size="14.00">Recv(&#39;VinniPuhh&#39;,)/&#39;activate&#39;</text>
</g>
<!-- 3&#45;&gt;3 -->
<g id="edge14" class="edge"><title>3&#45;&gt;3</title>
<a xlink:title="GET()">
<path fill="none" stroke="black" d="M59.6885,-30.9648C70.7806,-31.3633 80,-28.375 80,-22 80,-17.7168 75.8382,-14.9624 69.7429,-13.7368"/>
<polygon fill="black" stroke="black" points="69.9079,-10.2399 59.6885,-13.0352 69.4205,-17.223 69.9079,-10.2399"/>
</a>
<text text-anchor="middle" x="100.5" y="-17.9" font-family="Times Roman,serif" font-size="14.00">GET()</text>
</g>
</g>
</svg>
