<?xml version="1.0" encoding="UTF-8" standalone="no"?>
<!DOCTYPE svg PUBLIC "-//W3C//DTD SVG 1.1//EN"
 "http://www.w3.org/Graphics/SVG/1.1/DTD/svg11.dtd">
<!-- Generated by graphviz version 2.24.0 (20090616.2323)
 -->
<!-- Title: EmailSignupModelFSM Pages: 1 -->
<svg width="2859pt" height="1228pt"
 viewBox="0.00 0.00 2859.00 1228.00" xmlns="http://www.w3.org/2000/svg" xmlns:xlink="http://www.w3.org/1999/xlink">
<g id="graph1" class="graph" transform="scale(1 1) rotate(0) translate(4 1224)">
<title>EmailSignupModelFSM</title>
<polygon fill="white" stroke="white" points="-4,5 -4,-1224 2856,-1224 2856,5 -4,5"/>
<!-- 0 -->
<g id="node1" class="node"><title>0</title>
<a xlink:title="{&#39;EmailSignupModel&#39;: {&#39;activeEmails&#39;: set([]), &#39;mode&#39;: &#39;Inactive&#39;, &#39;pendingEmails&#39;: set([])}}">
<ellipse fill="lightgray" stroke="black" cx="2592" cy="-1198" rx="27" ry="18"/>
<ellipse fill="none" stroke="black" cx="2592" cy="-1198" rx="31" ry="22"/>
<text text-anchor="middle" x="2592" y="-1193.9" font-family="Times Roman,serif" font-size="14.00">0</text>
</a>
</g>
<!-- 1 -->
<g id="node2" class="node"><title>1</title>
<a xlink:title="{&#39;EmailSignupModel&#39;: {&#39;activeEmails&#39;: set([]), &#39;mode&#39;: &#39;Running&#39;, &#39;pendingEmails&#39;: set([])}}">
<ellipse fill="white" stroke="black" cx="2080" cy="-1100" rx="27" ry="18"/>
<ellipse fill="none" stroke="black" cx="2080" cy="-1100" rx="31" ry="22"/>
<text text-anchor="middle" x="2080" y="-1095.9" font-family="Times Roman,serif" font-size="14.00">1</text>
</a>
</g>
<!-- 0&#45;&gt;1 -->
<g id="edge2" class="edge"><title>0&#45;&gt;1</title>
<a xlink:title="Initialize()">
<path fill="none" stroke="black" d="M2561.88,-1192.24C2474.21,-1175.45 2219.08,-1126.62 2120,-1107.66"/>
<polygon fill="black" stroke="black" points="2120.56,-1104.2 2110.08,-1105.76 2119.24,-1111.07 2120.56,-1104.2"/>
</a>
<text text-anchor="middle" x="2417.5" y="-1144.9" font-family="Times Roman,serif" font-size="14.00">Initialize()</text>
</g>
<!-- 2 -->
<g id="node3" class="node"><title>2</title>
<a xlink:title="{&#39;EmailSignupModel&#39;: {&#39;activeEmails&#39;: set([]), &#39;mode&#39;: &#39;Running&#39;, &#39;pendingEmails&#39;: set([&#39;OleBrumm&#39;])}}">
<ellipse fill="white" stroke="black" cx="2080" cy="-1002" rx="27" ry="18"/>
<ellipse fill="none" stroke="black" cx="2080" cy="-1002" rx="31" ry="22"/>
<text text-anchor="middle" x="2080" y="-997.9" font-family="Times Roman,serif" font-size="14.00">2</text>
</a>
</g>
<!-- 1&#45;&gt;2 -->
<g id="edge4" class="edge"><title>1&#45;&gt;2</title>
<a xlink:title="Recv(&#39;OleBrumm&#39;, &#39;sign up&#39;)/&#39;pending&#39;">
<path fill="none" stroke="black" d="M2080,-1077.76C2080,-1064.98 2080,-1048.7 2080,-1034.5"/>
<polygon fill="black" stroke="black" points="2083.5,-1034.15 2080,-1024.15 2076.5,-1034.15 2083.5,-1034.15"/>
</a>
<text text-anchor="middle" x="2217" y="-1046.9" font-family="Times Roman,serif" font-size="14.00">Recv(&#39;OleBrumm&#39;, &#39;sign up&#39;)/&#39;pending&#39;</text>
</g>
<!-- 3 -->
<g id="node4" class="node"><title>3</title>
<a xlink:title="{&#39;EmailSignupModel&#39;: {&#39;activeEmails&#39;: set([]), &#39;mode&#39;: &#39;Error&#39;, &#39;pendingEmails&#39;: set([])}}">
<ellipse fill="red" stroke="black" cx="1250" cy="-22" rx="27" ry="18"/>
<ellipse fill="none" stroke="black" cx="1250" cy="-22" rx="31" ry="22"/>
<text text-anchor="middle" x="1250" y="-17.9" font-family="Times Roman,serif" font-size="14.00">3</text>
</a>
</g>
<!-- 1&#45;&gt;3 -->
<g id="edge6" class="edge"><title>1&#45;&gt;3</title>
<a xlink:title="Err(&#39;VinniPuhh&#39;, &#39;confirm&#39;)">
<path fill="none" stroke="black" d="M2110.89,-1097.32C2220.75,-1087.37 2586,-1050.65 2586,-1002 2586,-1002 2586,-1002 2586,-120 2586,-53.3946 1515.89,-27.5135 1291.11,-22.8118"/>
<polygon fill="black" stroke="black" points="1291.13,-19.3115 1281.06,-22.6039 1290.98,-26.31 1291.13,-19.3115"/>
</a>
<text text-anchor="middle" x="2681.5" y="-556.9" font-family="Times Roman,serif" font-size="14.00">Err(&#39;VinniPuhh&#39;, &#39;confirm&#39;)</text>
</g>
<!-- 1&#45;&gt;3 -->
<g id="edge10" class="edge"><title>1&#45;&gt;3</title>
<a xlink:title="Err(&#39;OleBrumm&#39;, &#39;confirm&#39;)">
<path fill="none" stroke="black" d="M2048.98,-1099.38C1790.24,-1094.1 0,-1055.66 0,-1002 0,-1002 0,-1002 0,-120 0,-19.7406 118.857,-76.9217 218,-62 414.039,-32.4948 1041.43,-24.1168 1208.69,-22.3819"/>
<polygon fill="black" stroke="black" points="1208.85,-25.8806 1218.81,-22.2793 1208.77,-18.881 1208.85,-25.8806"/>
</a>
<text text-anchor="middle" x="97" y="-556.9" font-family="Times Roman,serif" font-size="14.00">Err(&#39;OleBrumm&#39;, &#39;confirm&#39;)</text>
</g>
<!-- 4 -->
<g id="node5" class="node"><title>4</title>
<a xlink:title="{&#39;EmailSignupModel&#39;: {&#39;activeEmails&#39;: set([]), &#39;mode&#39;: &#39;Running&#39;, &#39;pendingEmails&#39;: set([&#39;VinniPuhh&#39;])}}">
<ellipse fill="white" stroke="black" cx="913" cy="-610" rx="27" ry="18"/>
<ellipse fill="none" stroke="black" cx="913" cy="-610" rx="31" ry="22"/>
<text text-anchor="middle" x="913" y="-605.9" font-family="Times Roman,serif" font-size="14.00">4</text>
</a>
</g>
<!-- 1&#45;&gt;4 -->
<g id="edge8" class="edge"><title>1&#45;&gt;4</title>
<a xlink:title="Recv(&#39;VinniPuhh&#39;, &#39;sign up&#39;)/&#39;pending&#39;">
<path fill="none" stroke="black" d="M2049,-1099.34C1851.23,-1094.97 774,-1068.08 774,-1002 774,-1002 774,-1002 774,-708 774,-659.037 832.324,-632.386 873.412,-619.686"/>
<polygon fill="black" stroke="black" points="874.568,-622.995 883.181,-616.825 872.6,-616.277 874.568,-622.995"/>
</a>
<text text-anchor="middle" x="909" y="-850.9" font-family="Times Roman,serif" font-size="14.00">Recv(&#39;VinniPuhh&#39;, &#39;sign up&#39;)/&#39;pending&#39;</text>
</g>
<!-- 2&#45;&gt;3 -->
<g id="edge12" class="edge"><title>2&#45;&gt;3</title>
<a xlink:title="Err(&#39;OleBrumm&#39;, &#39;sign up&#39;)">
<path fill="none" stroke="black" d="M2110.55,-998.217C2184.67,-988.19 2368,-957.938 2368,-904 2368,-904 2368,-904 2368,-659 2368,-593.665 2367,-577.335 2367,-512 2367,-512 2367,-512 2367,-120 2367,-64.8971 1493,-30.5979 1291.22,-23.4134"/>
<polygon fill="black" stroke="black" points="1291.16,-19.9092 1281.04,-23.0538 1290.91,-26.9048 1291.16,-19.9092"/>
</a>
<text text-anchor="middle" x="2462.5" y="-507.9" font-family="Times Roman,serif" font-size="14.00">Err(&#39;OleBrumm&#39;, &#39;sign up&#39;)</text>
</g>
<!-- 5 -->
<g id="node6" class="node"><title>5</title>
<a xlink:title="{&#39;EmailSignupModel&#39;: {&#39;activeEmails&#39;: set([&#39;OleBrumm&#39;]), &#39;mode&#39;: &#39;Running&#39;, &#39;pendingEmails&#39;: set([])}}">
<ellipse fill="white" stroke="black" cx="467" cy="-904" rx="27" ry="18"/>
<ellipse fill="none" stroke="black" cx="467" cy="-904" rx="31" ry="22"/>
<text text-anchor="middle" x="467" y="-899.9" font-family="Times Roman,serif" font-size="14.00">5</text>
</a>
</g>
<!-- 2&#45;&gt;5 -->
<g id="edge14" class="edge"><title>2&#45;&gt;5</title>
<a xlink:title="Recv(&#39;OleBrumm&#39;, &#39;confirm&#39;)/&#39;activate&#39;">
<path fill="none" stroke="black" d="M2048.86,-1000.11C1848.1,-987.91 737.316,-920.423 508.304,-906.51"/>
<polygon fill="black" stroke="black" points="508.267,-903.001 498.073,-905.888 507.842,-909.988 508.267,-903.001"/>
</a>
<text text-anchor="middle" x="1554.5" y="-948.9" font-family="Times Roman,serif" font-size="14.00">Recv(&#39;OleBrumm&#39;, &#39;confirm&#39;)/&#39;activate&#39;</text>
</g>
<!-- 6 -->
<g id="node7" class="node"><title>6</title>
<a xlink:title="{&#39;EmailSignupModel&#39;: {&#39;activeEmails&#39;: set([]), &#39;mode&#39;: &#39;Error&#39;, &#39;pendingEmails&#39;: set([&#39;OleBrumm&#39;])}}">
<ellipse fill="red" stroke="black" cx="1792" cy="-316" rx="27" ry="18"/>
<ellipse fill="none" stroke="black" cx="1792" cy="-316" rx="31" ry="22"/>
<text text-anchor="middle" x="1792" y="-311.9" font-family="Times Roman,serif" font-size="14.00">6</text>
</a>
</g>
<!-- 2&#45;&gt;6 -->
<g id="edge16" class="edge"><title>2&#45;&gt;6</title>
<a xlink:title="Err(&#39;VinniPuhh&#39;, &#39;confirm&#39;)">
<path fill="none" stroke="black" d="M2080,-979.815C2080,-959.952 2080,-930.031 2080,-904 2080,-904 2080,-904 2080,-414 2080,-370.8 2042.16,-371.923 2002,-356 1937.53,-330.437 1914.23,-355.027 1847,-338 1840.65,-336.393 1834.06,-334.224 1827.74,-331.874"/>
<polygon fill="black" stroke="black" points="1828.69,-328.486 1818.1,-328.084 1826.13,-335 1828.69,-328.486"/>
</a>
<text text-anchor="middle" x="2175.5" y="-654.9" font-family="Times Roman,serif" font-size="14.00">Err(&#39;VinniPuhh&#39;, &#39;confirm&#39;)</text>
</g>
<!-- 7 -->
<g id="node8" class="node"><title>7</title>
<a xlink:title="{&#39;EmailSignupModel&#39;: {&#39;activeEmails&#39;: set([]), &#39;mode&#39;: &#39;Running&#39;, &#39;pendingEmails&#39;: set([&#39;OleBrumm&#39;, &#39;VinniPuhh&#39;])}}">
<ellipse fill="white" stroke="black" cx="1580" cy="-512" rx="27" ry="18"/>
<ellipse fill="none" stroke="black" cx="1580" cy="-512" rx="31" ry="22"/>
<text text-anchor="middle" x="1580" y="-507.9" font-family="Times Roman,serif" font-size="14.00">7</text>
</a>
</g>
<!-- 2&#45;&gt;7 -->
<g id="edge18" class="edge"><title>2&#45;&gt;7</title>
<a xlink:title="Recv(&#39;VinniPuhh&#39;, &#39;sign up&#39;)/&#39;pending&#39;">
<path fill="none" stroke="black" d="M2049.23,-998.081C1975.53,-987.837 1795,-957.304 1795,-904 1795,-904 1795,-904 1795,-610 1795,-571.822 1681.33,-537.352 1619.3,-521.382"/>
<polygon fill="black" stroke="black" points="1620,-517.949 1609.44,-518.889 1618.28,-524.735 1620,-517.949"/>
</a>
<text text-anchor="middle" x="1930" y="-752.9" font-family="Times Roman,serif" font-size="14.00">Recv(&#39;VinniPuhh&#39;, &#39;sign up&#39;)/&#39;pending&#39;</text>
</g>
<!-- 3&#45;&gt;0 -->
<g id="edge20" class="edge"><title>3&#45;&gt;0</title>
<a xlink:title="Report()">
<path fill="none" stroke="black" d="M1281.15,-22.2974C1499.51,-24.5802 2792,-41.4116 2792,-120 2792,-1100 2792,-1100 2792,-1100 2792,-1135.47 2689.26,-1170.44 2631.05,-1187.4"/>
<polygon fill="black" stroke="black" points="2629.73,-1184.14 2621.08,-1190.26 2631.66,-1190.87 2629.73,-1184.14"/>
</a>
<text text-anchor="middle" x="2821.5" y="-605.9" font-family="Times Roman,serif" font-size="14.00">Report()</text>
</g>
<!-- 4&#45;&gt;3 -->
<g id="edge24" class="edge"><title>4&#45;&gt;3</title>
<a xlink:title="Err(&#39;VinniPuhh&#39;, &#39;sign up&#39;)">
<path fill="none" stroke="black" d="M916.388,-587.834C919.219,-563.022 920.965,-522.093 908,-490 874.156,-406.225 811.483,-419.749 773,-338 759.4,-309.109 762,-298.932 762,-267 762,-267 762,-267 762,-120 762,-74.5464 1091.63,-37.6103 1209.07,-25.894"/>
<polygon fill="black" stroke="black" points="1209.5,-29.3686 1219.1,-24.9025 1208.81,-22.4025 1209.5,-29.3686"/>
</a>
<text text-anchor="middle" x="867" y="-311.9" font-family="Times Roman,serif" font-size="14.00">Err(&#39;VinniPuhh&#39;, &#39;sign up&#39;)</text>
</g>
<!-- 4&#45;&gt;7 -->
<g id="edge22" class="edge"><title>4&#45;&gt;7</title>
<a xlink:title="Recv(&#39;OleBrumm&#39;, &#39;sign up&#39;)/&#39;pending&#39;">
<path fill="none" stroke="black" d="M929.368,-591.271C943.106,-576.074 962.038,-556.464 972,-552 1023.41,-528.964 1410.22,-516.569 1538.67,-513.056"/>
<polygon fill="black" stroke="black" points="1538.98,-516.549 1548.88,-512.781 1538.79,-509.552 1538.98,-516.549"/>
</a>
<text text-anchor="middle" x="1109" y="-556.9" font-family="Times Roman,serif" font-size="14.00">Recv(&#39;OleBrumm&#39;, &#39;sign up&#39;)/&#39;pending&#39;</text>
</g>
<!-- 8 -->
<g id="node9" class="node"><title>8</title>
<a xlink:title="{&#39;EmailSignupModel&#39;: {&#39;activeEmails&#39;: set([&#39;VinniPuhh&#39;]), &#39;mode&#39;: &#39;Running&#39;, &#39;pendingEmails&#39;: set([])}}">
<ellipse fill="white" stroke="black" cx="1461" cy="-120" rx="27" ry="18"/>
<ellipse fill="none" stroke="black" cx="1461" cy="-120" rx="31" ry="22"/>
<text text-anchor="middle" x="1461" y="-115.9" font-family="Times Roman,serif" font-size="14.00">8</text>
</a>
</g>
<!-- 4&#45;&gt;8 -->
<g id="edge26" class="edge"><title>4&#45;&gt;8</title>
<a xlink:title="Recv(&#39;VinniPuhh&#39;, &#39;confirm&#39;)/&#39;activate&#39;">
<path fill="none" stroke="black" d="M923.67,-589.224C930.957,-574.231 940.292,-553.312 946,-534 963.625,-474.371 950.772,-304.546 992,-258 1049.88,-192.658 1317.51,-143.23 1420.48,-126.325"/>
<polygon fill="black" stroke="black" points="1421.18,-129.757 1430.49,-124.698 1420.06,-122.847 1421.18,-129.757"/>
</a>
<text text-anchor="middle" x="1099" y="-360.9" font-family="Times Roman,serif" font-size="14.00">Recv(&#39;VinniPuhh&#39;, &#39;confirm&#39;)/&#39;activate&#39;</text>
</g>
<!-- 9 -->
<g id="node10" class="node"><title>9</title>
<a xlink:title="{&#39;EmailSignupModel&#39;: {&#39;activeEmails&#39;: set([]), &#39;mode&#39;: &#39;Error&#39;, &#39;pendingEmails&#39;: set([&#39;VinniPuhh&#39;])}}">
<ellipse fill="red" stroke="black" cx="913" cy="-708" rx="27" ry="18"/>
<ellipse fill="none" stroke="black" cx="913" cy="-708" rx="31" ry="22"/>
<text text-anchor="middle" x="913" y="-703.9" font-family="Times Roman,serif" font-size="14.00">9</text>
</a>
</g>
<!-- 4&#45;&gt;9 -->
<g id="edge28" class="edge"><title>4&#45;&gt;9</title>
<a xlink:title="Err(&#39;OleBrumm&#39;, &#39;confirm&#39;)">
<path fill="none" stroke="black" d="M913,-632.15C913,-644.914 913,-661.195 913,-675.399"/>
<polygon fill="black" stroke="black" points="909.5,-675.762 913,-685.762 916.5,-675.762 909.5,-675.762"/>
</a>
<text text-anchor="middle" x="1010" y="-654.9" font-family="Times Roman,serif" font-size="14.00">Err(&#39;OleBrumm&#39;, &#39;confirm&#39;)</text>
</g>
<!-- 5&#45;&gt;3 -->
<g id="edge30" class="edge"><title>5&#45;&gt;3</title>
<a xlink:title="Err(&#39;OleBrumm&#39;, &#39;sign up&#39;)">
<path fill="none" stroke="black" d="M436.645,-899.086C368.445,-887.187 209,-854.214 209,-806 209,-806 209,-806 209,-120 209,-27.4488 317.704,-77.1919 409,-62 565.494,-35.9589 1061.25,-25.3206 1208.42,-22.6871"/>
<polygon fill="black" stroke="black" points="1208.87,-26.1799 1218.81,-22.5044 1208.75,-19.181 1208.87,-26.1799"/>
</a>
<text text-anchor="middle" x="304.5" y="-458.9" font-family="Times Roman,serif" font-size="14.00">Err(&#39;OleBrumm&#39;, &#39;sign up&#39;)</text>
</g>
<!-- 5&#45;&gt;3 -->
<g id="edge36" class="edge"><title>5&#45;&gt;3</title>
<a xlink:title="Err(&#39;OleBrumm&#39;, &#39;confirm&#39;)">
<path fill="none" stroke="black" d="M452.349,-884.504C439.549,-865.506 423,-835.281 423,-806 423,-806 423,-806 423,-120 423,-40.0269 1040.75,-25.0881 1208.43,-22.5062"/>
<polygon fill="black" stroke="black" points="1208.64,-26.0036 1218.59,-22.3566 1208.54,-19.0043 1208.64,-26.0036"/>
</a>
<text text-anchor="middle" x="520" y="-458.9" font-family="Times Roman,serif" font-size="14.00">Err(&#39;OleBrumm&#39;, &#39;confirm&#39;)</text>
</g>
<!-- 10 -->
<g id="node11" class="node"><title>10</title>
<a xlink:title="{&#39;EmailSignupModel&#39;: {&#39;activeEmails&#39;: set([&#39;OleBrumm&#39;]), &#39;mode&#39;: &#39;Error&#39;, &#39;pendingEmails&#39;: set([])}}">
<ellipse fill="red" stroke="black" cx="703" cy="-218" rx="27" ry="18"/>
<ellipse fill="none" stroke="black" cx="703" cy="-218" rx="31" ry="22"/>
<text text-anchor="middle" x="703" y="-213.9" font-family="Times Roman,serif" font-size="14.00">10</text>
</a>
</g>
<!-- 5&#45;&gt;10 -->
<g id="edge32" class="edge"><title>5&#45;&gt;10</title>
<a xlink:title="Err(&#39;VinniPuhh&#39;, &#39;confirm&#39;)">
<path fill="none" stroke="black" d="M464.868,-881.838C463.143,-861.991 461,-832.08 461,-806 461,-806 461,-806 461,-610 461,-584.218 448.369,-573.883 462,-552 503.197,-485.863 571.696,-534.668 618,-472 675.405,-394.308 607.942,-341.796 656,-258 659.973,-251.073 665.616,-244.788 671.621,-239.36"/>
<polygon fill="black" stroke="black" points="673.869,-242.042 679.321,-232.958 669.394,-236.66 673.869,-242.042"/>
</a>
<text text-anchor="middle" x="557.5" y="-556.9" font-family="Times Roman,serif" font-size="14.00">Err(&#39;VinniPuhh&#39;, &#39;confirm&#39;)</text>
</g>
<!-- 11 -->
<g id="node12" class="node"><title>11</title>
<a xlink:title="{&#39;EmailSignupModel&#39;: {&#39;activeEmails&#39;: set([&#39;OleBrumm&#39;]), &#39;mode&#39;: &#39;Running&#39;, &#39;pendingEmails&#39;: set([&#39;VinniPuhh&#39;])}}">
<ellipse fill="white" stroke="black" cx="1105" cy="-806" rx="27" ry="18"/>
<ellipse fill="none" stroke="black" cx="1105" cy="-806" rx="31" ry="22"/>
<text text-anchor="middle" x="1105" y="-801.9" font-family="Times Roman,serif" font-size="14.00">11</text>
</a>
</g>
<!-- 5&#45;&gt;11 -->
<g id="edge34" class="edge"><title>5&#45;&gt;11</title>
<a xlink:title="Recv(&#39;VinniPuhh&#39;, &#39;sign up&#39;)/&#39;pending&#39;">
<path fill="none" stroke="black" d="M498.296,-903.141C611.823,-899.847 997.946,-887.042 1048,-864 1062.45,-857.349 1075.22,-845.32 1084.99,-833.934"/>
<polygon fill="black" stroke="black" points="1087.97,-835.813 1091.56,-825.843 1082.54,-831.402 1087.97,-835.813"/>
</a>
<text text-anchor="middle" x="1208" y="-850.9" font-family="Times Roman,serif" font-size="14.00">Recv(&#39;VinniPuhh&#39;, &#39;sign up&#39;)/&#39;pending&#39;</text>
</g>
<!-- 6&#45;&gt;2 -->
<g id="edge38" class="edge"><title>6&#45;&gt;2</title>
<a xlink:title="Report()">
<path fill="none" stroke="black" d="M1818.07,-328.216C1827.06,-331.941 1837.3,-335.665 1847,-338 1944.96,-361.586 2294,-313.241 2294,-414 2294,-904 2294,-904 2294,-904 2294,-941.934 2181.44,-976.392 2119.59,-992.462"/>
<polygon fill="black" stroke="black" points="2118.58,-989.107 2109.76,-994.973 2120.31,-995.89 2118.58,-989.107"/>
</a>
<text text-anchor="middle" x="2323.5" y="-654.9" font-family="Times Roman,serif" font-size="14.00">Report()</text>
</g>
<!-- 7&#45;&gt;6 -->
<g id="edge46" class="edge"><title>7&#45;&gt;6</title>
<a xlink:title="Err(&#39;VinniPuhh&#39;, &#39;sign up&#39;)">
<path fill="none" stroke="black" d="M1576.08,-489.921C1571.4,-455.55 1568.37,-389.707 1606,-356 1627.03,-337.163 1702.92,-325.646 1751.02,-320.074"/>
<polygon fill="black" stroke="black" points="1751.58,-323.533 1761.13,-318.942 1750.8,-316.577 1751.58,-323.533"/>
</a>
<text text-anchor="middle" x="1676" y="-409.9" font-family="Times Roman,serif" font-size="14.00">Err(&#39;VinniPuhh&#39;, &#39;sign up&#39;)</text>
</g>
<!-- 7&#45;&gt;9 -->
<g id="edge40" class="edge"><title>7&#45;&gt;9</title>
<a xlink:title="Err(&#39;OleBrumm&#39;, &#39;sign up&#39;)">
<path fill="none" stroke="black" d="M1571.41,-533.327C1565.03,-546.226 1555,-561.729 1541,-570 1502.01,-593.036 1382.28,-578.489 1338,-588 1232.18,-610.73 1212.35,-639.285 1108,-668 1055.24,-682.519 993.139,-694.381 953.442,-701.318"/>
<polygon fill="black" stroke="black" points="952.618,-697.908 943.359,-703.058 953.808,-704.806 952.618,-697.908"/>
</a>
<text text-anchor="middle" x="1433.5" y="-605.9" font-family="Times Roman,serif" font-size="14.00">Err(&#39;OleBrumm&#39;, &#39;sign up&#39;)</text>
</g>
<!-- 7&#45;&gt;11 -->
<g id="edge42" class="edge"><title>7&#45;&gt;11</title>
<a xlink:title="Recv(&#39;OleBrumm&#39;, &#39;confirm&#39;)/&#39;activate&#39;">
<path fill="none" stroke="black" d="M1576.85,-534.071C1574.53,-545.408 1570.59,-559.092 1564,-570 1531.08,-624.503 1412.17,-737.962 1355,-766 1319,-783.656 1207.34,-796.463 1146.14,-802.364"/>
<polygon fill="black" stroke="black" points="1145.68,-798.892 1136.05,-803.318 1146.34,-805.861 1145.68,-798.892"/>
</a>
<text text-anchor="middle" x="1633.5" y="-654.9" font-family="Times Roman,serif" font-size="14.00">Recv(&#39;OleBrumm&#39;, &#39;confirm&#39;)/&#39;activate&#39;</text>
</g>
<!-- 12 -->
<g id="node13" class="node"><title>12</title>
<a xlink:title="{&#39;EmailSignupModel&#39;: {&#39;activeEmails&#39;: set([&#39;VinniPuhh&#39;]), &#39;mode&#39;: &#39;Running&#39;, &#39;pendingEmails&#39;: set([&#39;OleBrumm&#39;])}}">
<ellipse fill="white" stroke="black" cx="1822" cy="-414" rx="27" ry="18"/>
<ellipse fill="none" stroke="black" cx="1822" cy="-414" rx="31" ry="22"/>
<text text-anchor="middle" x="1822" y="-409.9" font-family="Times Roman,serif" font-size="14.00">12</text>
</a>
</g>
<!-- 7&#45;&gt;12 -->
<g id="edge44" class="edge"><title>7&#45;&gt;12</title>
<a xlink:title="Recv(&#39;VinniPuhh&#39;, &#39;confirm&#39;)/&#39;activate&#39;">
<path fill="none" stroke="black" d="M1607.47,-501.498C1644.86,-487.122 1713.78,-460.321 1772,-436 1776.57,-434.09 1781.36,-432.043 1786.09,-429.995"/>
<polygon fill="black" stroke="black" points="1787.85,-433.044 1795.61,-425.832 1785.05,-426.63 1787.85,-433.044"/>
</a>
<text text-anchor="middle" x="1860" y="-458.9" font-family="Times Roman,serif" font-size="14.00">Recv(&#39;VinniPuhh&#39;, &#39;confirm&#39;)/&#39;activate&#39;</text>
</g>
<!-- 8&#45;&gt;3 -->
<g id="edge50" class="edge"><title>8&#45;&gt;3</title>
<a xlink:title="Err(&#39;VinniPuhh&#39;, &#39;sign up&#39;)">
<path fill="none" stroke="black" d="M1430.02,-118.727C1377.29,-115.845 1273.59,-106.827 1251,-80 1245.01,-72.8919 1243.21,-63.3726 1243.36,-54.1038"/>
<polygon fill="black" stroke="black" points="1246.87,-54.1487 1244.23,-43.8874 1239.89,-53.5537 1246.87,-54.1487"/>
</a>
<text text-anchor="middle" x="1345" y="-66.9" font-family="Times Roman,serif" font-size="14.00">Err(&#39;VinniPuhh&#39;, &#39;sign up&#39;)</text>
</g>
<!-- 8&#45;&gt;3 -->
<g id="edge52" class="edge"><title>8&#45;&gt;3</title>
<a xlink:title="Err(&#39;VinniPuhh&#39;, &#39;confirm&#39;)">
<path fill="none" stroke="black" d="M1457.92,-98.0135C1455.05,-85.6957 1449.55,-71.0389 1439,-62 1417.17,-43.2966 1339.83,-31.7059 1291.11,-26.0888"/>
<polygon fill="black" stroke="black" points="1291.21,-22.578 1280.88,-24.9483 1290.43,-29.5349 1291.21,-22.578"/>
</a>
<text text-anchor="middle" x="1546.5" y="-66.9" font-family="Times Roman,serif" font-size="14.00">Err(&#39;VinniPuhh&#39;, &#39;confirm&#39;)</text>
</g>
<!-- 8&#45;&gt;12 -->
<g id="edge48" class="edge"><title>8&#45;&gt;12</title>
<a xlink:title="Recv(&#39;OleBrumm&#39;, &#39;sign up&#39;)/&#39;pending&#39;">
<path fill="none" stroke="black" d="M1492.02,-122.277C1542.44,-126.498 1644.99,-137.262 1729,-160 1883.79,-201.896 1974.1,-161.213 2064,-294 2115.81,-370.528 1944.44,-400.345 1862.8,-410.017"/>
<polygon fill="black" stroke="black" points="1862.38,-406.542 1852.84,-411.149 1863.17,-413.497 1862.38,-406.542"/>
</a>
<text text-anchor="middle" x="2186" y="-262.9" font-family="Times Roman,serif" font-size="14.00">Recv(&#39;OleBrumm&#39;, &#39;sign up&#39;)/&#39;pending&#39;</text>
</g>
<!-- 13 -->
<g id="node14" class="node"><title>13</title>
<a xlink:title="{&#39;EmailSignupModel&#39;: {&#39;activeEmails&#39;: set([&#39;VinniPuhh&#39;]), &#39;mode&#39;: &#39;Error&#39;, &#39;pendingEmails&#39;: set([])}}">
<ellipse fill="red" stroke="black" cx="1543" cy="-218" rx="27" ry="18"/>
<ellipse fill="none" stroke="black" cx="1543" cy="-218" rx="31" ry="22"/>
<text text-anchor="middle" x="1543" y="-213.9" font-family="Times Roman,serif" font-size="14.00">13</text>
</a>
</g>
<!-- 8&#45;&gt;13 -->
<g id="edge54" class="edge"><title>8&#45;&gt;13</title>
<a xlink:title="Err(&#39;OleBrumm&#39;, &#39;confirm&#39;)">
<path fill="none" stroke="black" d="M1486.79,-132.439C1498.56,-139.204 1511.87,-148.543 1521,-160 1527.16,-167.732 1531.73,-177.377 1535.06,-186.569"/>
<polygon fill="black" stroke="black" points="1531.79,-187.821 1538.2,-196.252 1538.45,-185.66 1531.79,-187.821"/>
</a>
<text text-anchor="middle" x="1628" y="-164.9" font-family="Times Roman,serif" font-size="14.00">Err(&#39;OleBrumm&#39;, &#39;confirm&#39;)</text>
</g>
<!-- 9&#45;&gt;4 -->
<g id="edge56" class="edge"><title>9&#45;&gt;4</title>
<a xlink:title="Report()">
<path fill="none" stroke="black" d="M885.218,-697.823C872.038,-691.426 857.551,-681.738 850,-668 840.48,-650.679 857.838,-635.706 876.726,-625.314"/>
<polygon fill="black" stroke="black" points="878.396,-628.391 885.714,-620.73 875.215,-622.155 878.396,-628.391"/>
</a>
<text text-anchor="middle" x="879.5" y="-654.9" font-family="Times Roman,serif" font-size="14.00">Report()</text>
</g>
<!-- 10&#45;&gt;5 -->
<g id="edge58" class="edge"><title>10&#45;&gt;5</title>
<a xlink:title="Report()">
<path fill="none" stroke="black" d="M691.643,-238.732C682.098,-258.117 670,-288.173 670,-316 670,-463 670,-463 670,-463 670,-510.564 669.776,-522.488 672,-570 672.834,-587.808 675,-592.172 675,-610 675,-806 675,-806 675,-806 675,-842.886 566.6,-877.588 506.31,-894.037"/>
<polygon fill="black" stroke="black" points="505.112,-890.734 496.36,-896.705 506.925,-897.495 505.112,-890.734"/>
</a>
<text text-anchor="middle" x="701.5" y="-556.9" font-family="Times Roman,serif" font-size="14.00">Report()</text>
</g>
<!-- 11&#45;&gt;9 -->
<g id="edge60" class="edge"><title>11&#45;&gt;9</title>
<a xlink:title="Err(&#39;OleBrumm&#39;, &#39;sign up&#39;)">
<path fill="none" stroke="black" d="M1073.72,-804.353C1023.33,-800.972 927.708,-791.31 907,-766 900.927,-758.578 900.171,-748.706 901.627,-739.214"/>
<polygon fill="black" stroke="black" points="905.1,-739.728 903.93,-729.198 898.278,-738.16 905.1,-739.728"/>
</a>
<text text-anchor="middle" x="1002.5" y="-752.9" font-family="Times Roman,serif" font-size="14.00">Err(&#39;OleBrumm&#39;, &#39;sign up&#39;)</text>
</g>
<!-- 11&#45;&gt;9 -->
<g id="edge66" class="edge"><title>11&#45;&gt;9</title>
<a xlink:title="Err(&#39;OleBrumm&#39;, &#39;confirm&#39;)">
<path fill="none" stroke="black" d="M1108.07,-783.913C1108.47,-771.87 1106.68,-757.521 1098,-748 1079.03,-727.182 1002.51,-716.309 954.025,-711.396"/>
<polygon fill="black" stroke="black" points="954.129,-707.89 943.838,-710.41 953.454,-714.857 954.129,-707.89"/>
</a>
<text text-anchor="middle" x="1203" y="-752.9" font-family="Times Roman,serif" font-size="14.00">Err(&#39;OleBrumm&#39;, &#39;confirm&#39;)</text>
</g>
<!-- 11&#45;&gt;10 -->
<g id="edge62" class="edge"><title>11&#45;&gt;10</title>
<a xlink:title="Err(&#39;VinniPuhh&#39;, &#39;sign up&#39;)">
<path fill="none" stroke="black" d="M1074.18,-802.806C1023.72,-797.132 926.196,-784.159 897,-766 795.704,-702.998 814.568,-640.876 735,-552 727.241,-543.333 720.596,-544.686 716,-534 703.531,-505.012 716,-494.556 716,-463 716,-463 716,-463 716,-316 716,-293.844 712.694,-269.113 709.417,-250.038"/>
<polygon fill="black" stroke="black" points="712.839,-249.295 707.62,-240.074 705.95,-250.537 712.839,-249.295"/>
</a>
<text text-anchor="middle" x="810" y="-507.9" font-family="Times Roman,serif" font-size="14.00">Err(&#39;VinniPuhh&#39;, &#39;sign up&#39;)</text>
</g>
<!-- 14 -->
<g id="node15" class="node"><title>14</title>
<a xlink:title="{&#39;EmailSignupModel&#39;: {&#39;activeEmails&#39;: set([&#39;OleBrumm&#39;, &#39;VinniPuhh&#39;]), &#39;mode&#39;: &#39;Running&#39;, &#39;pendingEmails&#39;: set([])}}">
<ellipse fill="white" stroke="black" cx="1273" cy="-316" rx="27" ry="18"/>
<ellipse fill="none" stroke="black" cx="1273" cy="-316" rx="31" ry="22"/>
<text text-anchor="middle" x="1273" y="-311.9" font-family="Times Roman,serif" font-size="14.00">14</text>
</a>
</g>
<!-- 11&#45;&gt;14 -->
<g id="edge64" class="edge"><title>11&#45;&gt;14</title>
<a xlink:title="Recv(&#39;VinniPuhh&#39;, &#39;confirm&#39;)/&#39;activate&#39;">
<path fill="none" stroke="black" d="M1135.97,-803.966C1185.95,-800.024 1281.1,-789.564 1304,-766 1346.12,-722.67 1321.87,-692.208 1327,-632 1328.66,-612.515 1337.54,-604.472 1327,-588 1316.71,-571.919 1298.76,-585.77 1288,-570 1241.77,-502.234 1254.72,-399.123 1265.31,-347.607"/>
<polygon fill="black" stroke="black" points="1268.76,-348.237 1267.45,-337.723 1261.92,-346.758 1268.76,-348.237"/>
</a>
<text text-anchor="middle" x="1424" y="-556.9" font-family="Times Roman,serif" font-size="14.00">Recv(&#39;VinniPuhh&#39;, &#39;confirm&#39;)/&#39;activate&#39;</text>
</g>
<!-- 12&#45;&gt;6 -->
<g id="edge72" class="edge"><title>12&#45;&gt;6</title>
<a xlink:title="Err(&#39;VinniPuhh&#39;, &#39;confirm&#39;)">
<path fill="none" stroke="black" d="M1796.59,-401.055C1788.87,-397.607 1780.24,-394.227 1772,-392 1737.89,-382.78 1637.53,-400.364 1614,-374 1608.67,-368.032 1609,-362.246 1614,-356 1630.79,-335.02 1703.51,-324.28 1750.65,-319.421"/>
<polygon fill="black" stroke="black" points="1751.26,-322.878 1760.87,-318.418 1750.58,-315.912 1751.26,-322.878"/>
</a>
<text text-anchor="middle" x="1709.5" y="-360.9" font-family="Times Roman,serif" font-size="14.00">Err(&#39;VinniPuhh&#39;, &#39;confirm&#39;)</text>
</g>
<!-- 12&#45;&gt;6 -->
<g id="edge74" class="edge"><title>12&#45;&gt;6</title>
<a xlink:title="Err(&#39;VinniPuhh&#39;, &#39;sign up&#39;)">
<path fill="none" stroke="black" d="M1815.77,-392.197C1812.62,-381.302 1808.69,-367.93 1805,-356 1804.13,-353.188 1803.21,-350.269 1802.28,-347.347"/>
<polygon fill="black" stroke="black" points="1805.53,-346 1799.13,-337.553 1798.86,-348.144 1805.53,-346"/>
</a>
<text text-anchor="middle" x="1904" y="-360.9" font-family="Times Roman,serif" font-size="14.00">Err(&#39;VinniPuhh&#39;, &#39;sign up&#39;)</text>
</g>
<!-- 12&#45;&gt;13 -->
<g id="edge68" class="edge"><title>12&#45;&gt;13</title>
<a xlink:title="Err(&#39;OleBrumm&#39;, &#39;sign up&#39;)">
<path fill="none" stroke="black" d="M1853.09,-411.671C1899.57,-407.471 1983.67,-396.848 2002,-374 2007.01,-367.76 2007.25,-362.035 2002,-356 1964,-312.33 1920.35,-371.305 1873,-338 1840.15,-314.896 1863.85,-281.093 1831,-258 1792.11,-230.665 1654.57,-221.9 1584.58,-219.177"/>
<polygon fill="black" stroke="black" points="1584.48,-215.671 1574.35,-218.804 1584.22,-222.666 1584.48,-215.671"/>
</a>
<text text-anchor="middle" x="1968.5" y="-311.9" font-family="Times Roman,serif" font-size="14.00">Err(&#39;OleBrumm&#39;, &#39;sign up&#39;)</text>
</g>
<!-- 12&#45;&gt;14 -->
<g id="edge70" class="edge"><title>12&#45;&gt;14</title>
<a xlink:title="Recv(&#39;OleBrumm&#39;, &#39;confirm&#39;)/&#39;activate&#39;">
<path fill="none" stroke="black" d="M1796.94,-400.791C1789.16,-397.291 1780.41,-393.948 1772,-392 1676.45,-369.864 1420.83,-413.375 1331,-374 1316.16,-367.497 1303.06,-355.322 1293.08,-343.799"/>
<polygon fill="black" stroke="black" points="1295.73,-341.516 1286.69,-336.004 1290.32,-345.955 1295.73,-341.516"/>
</a>
<text text-anchor="middle" x="1468.5" y="-360.9" font-family="Times Roman,serif" font-size="14.00">Recv(&#39;OleBrumm&#39;, &#39;confirm&#39;)/&#39;activate&#39;</text>
</g>
<!-- 13&#45;&gt;8 -->
<g id="edge76" class="edge"><title>13&#45;&gt;8</title>
<a xlink:title="Report()">
<path fill="none" stroke="black" d="M1512.74,-212.335C1493.47,-206.995 1469.97,-196.866 1458,-178 1453.09,-170.268 1452.05,-160.722 1452.74,-151.623"/>
<polygon fill="black" stroke="black" points="1456.21,-152.05 1454.14,-141.66 1449.28,-151.073 1456.21,-152.05"/>
</a>
<text text-anchor="middle" x="1487.5" y="-164.9" font-family="Times Roman,serif" font-size="14.00">Report()</text>
</g>
<!-- 14&#45;&gt;10 -->
<g id="edge80" class="edge"><title>14&#45;&gt;10</title>
<a xlink:title="Err(&#39;VinniPuhh&#39;, &#39;sign up&#39;)">
<path fill="none" stroke="black" d="M1242.41,-311.65C1193.6,-304.635 1095.15,-290.171 1012,-276 915.304,-259.52 802.095,-237.596 743.207,-225.992"/>
<polygon fill="black" stroke="black" points="743.692,-222.52 733.203,-224.017 742.336,-229.388 743.692,-222.52"/>
</a>
<text text-anchor="middle" x="1106" y="-262.9" font-family="Times Roman,serif" font-size="14.00">Err(&#39;VinniPuhh&#39;, &#39;sign up&#39;)</text>
</g>
<!-- 14&#45;&gt;10 -->
<g id="edge82" class="edge"><title>14&#45;&gt;10</title>
<a xlink:title="Err(&#39;VinniPuhh&#39;, &#39;confirm&#39;)">
<path fill="none" stroke="black" d="M1250.73,-300.431C1240.81,-293.259 1229.1,-284.473 1219,-276 1210.09,-268.524 1210.62,-262.736 1200,-258 1158.88,-239.669 856.371,-224.715 744.467,-219.756"/>
<polygon fill="black" stroke="black" points="744.391,-216.249 734.247,-219.307 744.084,-223.242 744.391,-216.249"/>
</a>
<text text-anchor="middle" x="1314.5" y="-262.9" font-family="Times Roman,serif" font-size="14.00">Err(&#39;VinniPuhh&#39;, &#39;confirm&#39;)</text>
</g>
<!-- 14&#45;&gt;13 -->
<g id="edge78" class="edge"><title>14&#45;&gt;13</title>
<a xlink:title="Err(&#39;OleBrumm&#39;, &#39;sign up&#39;)">
<path fill="none" stroke="black" d="M1303.41,-310.911C1332.85,-305.183 1378.16,-294.216 1414,-276 1425.57,-270.119 1425.69,-264.364 1437,-258 1458.21,-246.065 1483.69,-236.322 1504.35,-229.441"/>
<polygon fill="black" stroke="black" points="1505.63,-232.705 1514.06,-226.295 1503.47,-226.046 1505.63,-232.705"/>
</a>
<text text-anchor="middle" x="1532.5" y="-262.9" font-family="Times Roman,serif" font-size="14.00">Err(&#39;OleBrumm&#39;, &#39;sign up&#39;)</text>
</g>
<!-- 14&#45;&gt;13 -->
<g id="edge84" class="edge"><title>14&#45;&gt;13</title>
<a xlink:title="Err(&#39;OleBrumm&#39;, &#39;confirm&#39;)">
<path fill="none" stroke="black" d="M1304.09,-314.82C1386.65,-311.37 1606.56,-299.99 1628,-276 1646.26,-255.566 1612.12,-238.795 1581.82,-228.635"/>
<polygon fill="black" stroke="black" points="1582.77,-225.267 1572.18,-225.572 1580.65,-231.938 1582.77,-225.267"/>
</a>
<text text-anchor="middle" x="1730" y="-262.9" font-family="Times Roman,serif" font-size="14.00">Err(&#39;OleBrumm&#39;, &#39;confirm&#39;)</text>
</g>
</g>
</svg>
