<?xml version="1.0" encoding="UTF-8" standalone="no"?>
<!DOCTYPE svg PUBLIC "-//W3C//DTD SVG 1.1//EN"
 "http://www.w3.org/Graphics/SVG/1.1/DTD/svg11.dtd">
<!-- Generated by graphviz version 2.24.0 (20090616.2323)
 -->
<!-- Title: EmailSignupModelFSM Pages: 1 -->
<svg width="563pt" height="346pt"
 viewBox="0.00 0.00 562.52 346.00" xmlns="http://www.w3.org/2000/svg" xmlns:xlink="http://www.w3.org/1999/xlink">
<g id="graph1" class="graph" transform="scale(1 1) rotate(0) translate(4 342)">
<title>EmailSignupModelFSM</title>
<polygon fill="white" stroke="white" points="-4,5 -4,-342 559.517,-342 559.517,5 -4,5"/>
<!-- 0 -->
<g id="node1" class="node"><title>0</title>
<a xlink:title="{&#39;EmailSignupModel&#39;: {&#39;activeEmails&#39;: set([]), &#39;mode&#39;: &#39;Inactive&#39;, &#39;pendingEmails&#39;: set([])}}">
<ellipse fill="lightgray" stroke="black" cx="151.517" cy="-316" rx="27" ry="18"/>
<ellipse fill="none" stroke="black" cx="151.517" cy="-316" rx="31" ry="22"/>
<text text-anchor="middle" x="151.517" y="-311.9" font-family="Times Roman,serif" font-size="14.00">0</text>
</a>
</g>
<!-- 1 -->
<g id="node2" class="node"><title>1</title>
<a xlink:title="{&#39;EmailSignupModel&#39;: {&#39;activeEmails&#39;: set([]), &#39;mode&#39;: &#39;Running&#39;, &#39;pendingEmails&#39;: set([])}}">
<ellipse fill="white" stroke="black" cx="151.517" cy="-218" rx="27" ry="18"/>
<ellipse fill="none" stroke="black" cx="151.517" cy="-218" rx="31" ry="22"/>
<text text-anchor="middle" x="151.517" y="-213.9" font-family="Times Roman,serif" font-size="14.00">1</text>
</a>
</g>
<!-- 0&#45;&gt;1 -->
<g id="edge2" class="edge"><title>0&#45;&gt;1</title>
<a xlink:title="Initialize()">
<path fill="none" stroke="black" d="M151.517,-293.762C151.517,-280.982 151.517,-264.697 151.517,-250.504"/>
<polygon fill="black" stroke="black" points="155.017,-250.15 151.517,-240.15 148.017,-250.15 155.017,-250.15"/>
</a>
<text text-anchor="middle" x="188.017" y="-262.9" font-family="Times Roman,serif" font-size="14.00">Initialize()</text>
</g>
<!-- 2 -->
<g id="node3" class="node"><title>2</title>
<a xlink:title="{&#39;EmailSignupModel&#39;: {&#39;activeEmails&#39;: set([]), &#39;mode&#39;: &#39;Running&#39;, &#39;pendingEmails&#39;: set([&#39;VinniPuhh&#39;])}}">
<ellipse fill="white" stroke="black" cx="151.517" cy="-120" rx="27" ry="18"/>
<ellipse fill="none" stroke="black" cx="151.517" cy="-120" rx="31" ry="22"/>
<text text-anchor="middle" x="151.517" y="-115.9" font-family="Times Roman,serif" font-size="14.00">2</text>
</a>
</g>
<!-- 1&#45;&gt;2 -->
<g id="edge4" class="edge"><title>1&#45;&gt;2</title>
<a xlink:title="Recv(&#39;VinniPuhh&#39;, &#39;sign up&#39;)/&#39;pending&#39;">
<path fill="none" stroke="black" d="M120.983,-213.931C82.6778,-208.127 20.3205,-196.127 6.51693,-178 -22.5877,-139.779 58.0597,-126.681 110.475,-122.239"/>
<polygon fill="black" stroke="black" points="110.84,-125.722 120.54,-121.461 110.3,-118.742 110.84,-125.722"/>
</a>
<text text-anchor="middle" x="141.517" y="-164.9" font-family="Times Roman,serif" font-size="14.00">Recv(&#39;VinniPuhh&#39;, &#39;sign up&#39;)/&#39;pending&#39;</text>
</g>
<!-- 1&#45;&gt;2 -->
<g id="edge6" class="edge"><title>1&#45;&gt;2</title>
<a xlink:title="Recv(&#39;VinniPuhh&#39;, &#39;confirm&#39;)/&#39;pending&#39;">
<path fill="none" stroke="black" d="M181.673,-212.55C214.926,-205.855 265.232,-193.459 276.517,-178 300.464,-145.194 237.672,-130.392 192.656,-124.142"/>
<polygon fill="black" stroke="black" points="192.875,-120.641 182.51,-122.833 191.979,-127.584 192.875,-120.641"/>
</a>
<text text-anchor="middle" x="418.017" y="-164.9" font-family="Times Roman,serif" font-size="14.00">Recv(&#39;VinniPuhh&#39;, &#39;confirm&#39;)/&#39;pending&#39;</text>
</g>
<!-- 3 -->
<g id="node4" class="node"><title>3</title>
<a xlink:title="{&#39;EmailSignupModel&#39;: {&#39;activeEmails&#39;: set([&#39;VinniPuhh&#39;]), &#39;mode&#39;: &#39;Running&#39;, &#39;pendingEmails&#39;: set([])}}">
<ellipse fill="lightgreen" stroke="black" cx="151.517" cy="-22" rx="27" ry="18"/>
<ellipse fill="none" stroke="black" cx="151.517" cy="-22" rx="31" ry="22"/>
<text text-anchor="middle" x="151.517" y="-17.9" font-family="Times Roman,serif" font-size="14.00">3</text>
</a>
</g>
<!-- 2&#45;&gt;3 -->
<g id="edge8" class="edge"><title>2&#45;&gt;3</title>
<a xlink:title="Recv(&#39;VinniPuhh&#39;, &#39;sign up&#39;)/&#39;activate&#39;">
<path fill="none" stroke="black" d="M120.983,-115.931C82.6778,-110.127 20.3205,-98.127 6.51693,-80 -22.5877,-41.7794 58.0597,-28.6815 110.475,-24.2393"/>
<polygon fill="black" stroke="black" points="110.84,-27.7216 120.54,-23.4614 110.3,-20.7424 110.84,-27.7216"/>
</a>
<text text-anchor="middle" x="141.017" y="-66.9" font-family="Times Roman,serif" font-size="14.00">Recv(&#39;VinniPuhh&#39;, &#39;sign up&#39;)/&#39;activate&#39;</text>
</g>
<!-- 2&#45;&gt;3 -->
<g id="edge10" class="edge"><title>2&#45;&gt;3</title>
<a xlink:title="Recv(&#39;VinniPuhh&#39;, &#39;confirm&#39;)/&#39;activate&#39;">
<path fill="none" stroke="black" d="M182.261,-117.118C226.754,-111.69 301.118,-97.159 275.517,-62 265.455,-48.181 224.051,-36.7366 191.821,-29.6798"/>
<polygon fill="black" stroke="black" points="192.238,-26.1907 181.731,-27.5453 190.79,-33.0391 192.238,-26.1907"/>
</a>
<text text-anchor="middle" x="416.517" y="-66.9" font-family="Times Roman,serif" font-size="14.00">Recv(&#39;VinniPuhh&#39;, &#39;confirm&#39;)/&#39;activate&#39;</text>
</g>
</g>
</svg>
