<?xml version="1.0" encoding="UTF-8" standalone="no"?>
<!DOCTYPE svg PUBLIC "-//W3C//DTD SVG 1.1//EN"
 "http://www.w3.org/Graphics/SVG/1.1/DTD/svg11.dtd">
<!-- Generated by graphviz version 2.24.0 (20090616.2323)
 -->
<!-- Title: EmailSignupModelFSM Pages: 1 -->
<svg width="702pt" height="444pt"
 viewBox="0.00 0.00 701.72 444.00" xmlns="http://www.w3.org/2000/svg" xmlns:xlink="http://www.w3.org/1999/xlink">
<g id="graph1" class="graph" transform="scale(1 1) rotate(0) translate(4 440)">
<title>EmailSignupModelFSM</title>
<polygon fill="white" stroke="white" points="-4,5 -4,-440 698.716,-440 698.716,5 -4,5"/>
<!-- 0 -->
<g id="node1" class="node"><title>0</title>
<a xlink:title="{&#39;EmailSignupModel&#39;: {&#39;activeEmails&#39;: set([]), &#39;mode&#39;: &#39;Inactive&#39;, &#39;pendingEmails&#39;: set([])}}">
<ellipse fill="lightgray" stroke="black" cx="499.716" cy="-414" rx="27" ry="18"/>
<ellipse fill="none" stroke="black" cx="499.716" cy="-414" rx="31" ry="22"/>
<text text-anchor="middle" x="499.716" y="-409.9" font-family="Times Roman,serif" font-size="14.00">0</text>
</a>
</g>
<!-- 1 -->
<g id="node2" class="node"><title>1</title>
<a xlink:title="{&#39;EmailSignupModel&#39;: {&#39;activeEmails&#39;: set([]), &#39;mode&#39;: &#39;Running&#39;, &#39;pendingEmails&#39;: set([])}}">
<ellipse fill="white" stroke="black" cx="265.716" cy="-316" rx="27" ry="18"/>
<ellipse fill="none" stroke="black" cx="265.716" cy="-316" rx="31" ry="22"/>
<text text-anchor="middle" x="265.716" y="-311.9" font-family="Times Roman,serif" font-size="14.00">1</text>
</a>
</g>
<!-- 0&#45;&gt;1 -->
<g id="edge2" class="edge"><title>0&#45;&gt;1</title>
<a xlink:title="Initialize()">
<path fill="none" stroke="black" d="M472.873,-402.758C430.757,-385.12 349.094,-350.919 301.855,-331.135"/>
<polygon fill="black" stroke="black" points="303.181,-327.896 292.605,-327.261 300.477,-334.353 303.181,-327.896"/>
</a>
<text text-anchor="middle" x="439.216" y="-360.9" font-family="Times Roman,serif" font-size="14.00">Initialize()</text>
</g>
<!-- 2 -->
<g id="node3" class="node"><title>2</title>
<a xlink:title="{&#39;EmailSignupModel&#39;: {&#39;activeEmails&#39;: set([]), &#39;mode&#39;: &#39;Error&#39;, &#39;pendingEmails&#39;: set([])}}">
<ellipse fill="white" stroke="black" cx="217.716" cy="-22" rx="27" ry="18"/>
<ellipse fill="none" stroke="black" cx="217.716" cy="-22" rx="31" ry="22"/>
<text text-anchor="middle" x="217.716" y="-17.9" font-family="Times Roman,serif" font-size="14.00">2</text>
</a>
</g>
<!-- 1&#45;&gt;2 -->
<g id="edge4" class="edge"><title>1&#45;&gt;2</title>
<a xlink:title="Err(&#39;VinniPuhh&#39;, &#39;confirm&#39;)">
<path fill="none" stroke="black" d="M235.36,-310.183C178.857,-297.536 58.7558,-261.667 8.71624,-178 -36.2871,-102.754 106.374,-52.0849 178.544,-31.865"/>
<polygon fill="black" stroke="black" points="179.511,-35.2292 188.233,-29.2146 177.664,-28.4773 179.511,-35.2292"/>
</a>
<text text-anchor="middle" x="104.216" y="-164.9" font-family="Times Roman,serif" font-size="14.00">Err(&#39;VinniPuhh&#39;, &#39;confirm&#39;)</text>
</g>
<!-- 3 -->
<g id="node4" class="node"><title>3</title>
<a xlink:title="{&#39;EmailSignupModel&#39;: {&#39;activeEmails&#39;: set([]), &#39;mode&#39;: &#39;Running&#39;, &#39;pendingEmails&#39;: set([&#39;VinniPuhh&#39;])}}">
<ellipse fill="white" stroke="black" cx="265.716" cy="-218" rx="27" ry="18"/>
<ellipse fill="none" stroke="black" cx="265.716" cy="-218" rx="31" ry="22"/>
<text text-anchor="middle" x="265.716" y="-213.9" font-family="Times Roman,serif" font-size="14.00">3</text>
</a>
</g>
<!-- 1&#45;&gt;3 -->
<g id="edge6" class="edge"><title>1&#45;&gt;3</title>
<a xlink:title="Recv(&#39;VinniPuhh&#39;, &#39;sign up&#39;)/&#39;pending&#39;">
<path fill="none" stroke="black" d="M265.716,-293.762C265.716,-280.982 265.716,-264.697 265.716,-250.504"/>
<polygon fill="black" stroke="black" points="269.216,-250.15 265.716,-240.15 262.216,-250.15 269.216,-250.15"/>
</a>
<text text-anchor="middle" x="400.716" y="-262.9" font-family="Times Roman,serif" font-size="14.00">Recv(&#39;VinniPuhh&#39;, &#39;sign up&#39;)/&#39;pending&#39;</text>
</g>
<!-- 2&#45;&gt;0 -->
<g id="edge8" class="edge"><title>2&#45;&gt;0</title>
<a xlink:title="Report()">
<path fill="none" stroke="black" d="M248.833,-23.3163C336.827,-27.2926 582.954,-40.261 611.716,-62 633.839,-78.7208 634.716,-92.2694 634.716,-120 634.716,-316 634.716,-316 634.716,-316 634.716,-363.658 578.937,-390.539 539.087,-403.663"/>
<polygon fill="black" stroke="black" points="537.844,-400.384 529.343,-406.707 539.931,-407.066 537.844,-400.384"/>
</a>
<text text-anchor="middle" x="664.216" y="-213.9" font-family="Times Roman,serif" font-size="14.00">Report()</text>
</g>
<!-- 3&#45;&gt;2 -->
<g id="edge10" class="edge"><title>3&#45;&gt;2</title>
<a xlink:title="Err(&#39;VinniPuhh&#39;, &#39;sign up&#39;)">
<path fill="none" stroke="black" d="M243.75,-202.453C226.487,-188.776 203.741,-167.158 193.716,-142 181.983,-112.554 192.077,-76.6718 202.543,-51.857"/>
<polygon fill="black" stroke="black" points="205.794,-53.1587 206.68,-42.6009 199.404,-50.3023 205.794,-53.1587"/>
</a>
<text text-anchor="middle" x="287.716" y="-115.9" font-family="Times Roman,serif" font-size="14.00">Err(&#39;VinniPuhh&#39;, &#39;sign up&#39;)</text>
</g>
<!-- 4 -->
<g id="node5" class="node"><title>4</title>
<a xlink:title="{&#39;EmailSignupModel&#39;: {&#39;activeEmails&#39;: set([&#39;VinniPuhh&#39;]), &#39;mode&#39;: &#39;Running&#39;, &#39;pendingEmails&#39;: set([])}}">
<ellipse fill="white" stroke="black" cx="421.716" cy="-120" rx="27" ry="18"/>
<ellipse fill="none" stroke="black" cx="421.716" cy="-120" rx="31" ry="22"/>
<text text-anchor="middle" x="421.716" y="-115.9" font-family="Times Roman,serif" font-size="14.00">4</text>
</a>
</g>
<!-- 3&#45;&gt;4 -->
<g id="edge12" class="edge"><title>3&#45;&gt;4</title>
<a xlink:title="Recv(&#39;VinniPuhh&#39;, &#39;confirm&#39;)/&#39;activate&#39;">
<path fill="none" stroke="black" d="M287.126,-202.076C303.636,-190.034 327.21,-173.352 348.716,-160 361.044,-152.347 374.931,-144.544 387.258,-137.886"/>
<polygon fill="black" stroke="black" points="389.158,-140.838 396.329,-133.039 385.859,-134.665 389.158,-140.838"/>
</a>
<text text-anchor="middle" x="484.716" y="-164.9" font-family="Times Roman,serif" font-size="14.00">Recv(&#39;VinniPuhh&#39;, &#39;confirm&#39;)/&#39;activate&#39;</text>
</g>
<!-- 4&#45;&gt;2 -->
<g id="edge14" class="edge"><title>4&#45;&gt;2</title>
<a xlink:title="Err(&#39;VinniPuhh&#39;, &#39;sign up&#39;)">
<path fill="none" stroke="black" d="M397.096,-106.095C390.638,-102.974 383.561,-99.9986 376.716,-98 342.794,-88.0957 242.474,-106.16 218.716,-80 212.352,-72.9919 210.527,-63.3105 210.765,-53.8638"/>
<polygon fill="black" stroke="black" points="214.255,-54.1289 211.716,-43.8428 207.287,-53.4672 214.255,-54.1289"/>
</a>
<text text-anchor="middle" x="312.716" y="-66.9" font-family="Times Roman,serif" font-size="14.00">Err(&#39;VinniPuhh&#39;, &#39;sign up&#39;)</text>
</g>
<!-- 4&#45;&gt;2 -->
<g id="edge16" class="edge"><title>4&#45;&gt;2</title>
<a xlink:title="Err(&#39;VinniPuhh&#39;, &#39;confirm&#39;)">
<path fill="none" stroke="black" d="M421.432,-97.9014C420.087,-85.7018 416.337,-71.2018 406.716,-62 385.898,-42.0887 307.918,-30.8884 258.863,-25.6741"/>
<polygon fill="black" stroke="black" points="259.17,-22.1872 248.866,-24.6513 258.458,-29.1509 259.17,-22.1872"/>
</a>
<text text-anchor="middle" x="512.216" y="-66.9" font-family="Times Roman,serif" font-size="14.00">Err(&#39;VinniPuhh&#39;, &#39;confirm&#39;)</text>
</g>
</g>
</svg>
