<?xml version="1.0" encoding="UTF-8" standalone="no"?>
<!DOCTYPE svg PUBLIC "-//W3C//DTD SVG 1.1//EN"
 "http://www.w3.org/Graphics/SVG/1.1/DTD/svg11.dtd">
<!-- Generated by graphviz version 2.24.0 (20090616.2323)
 -->
<!-- Title: EmailSignupModelFSM Pages: 1 -->
<svg width="915pt" height="542pt"
 viewBox="0.00 0.00 915.00 542.00" xmlns="http://www.w3.org/2000/svg" xmlns:xlink="http://www.w3.org/1999/xlink">
<g id="graph1" class="graph" transform="scale(1 1) rotate(0) translate(4 538)">
<title>EmailSignupModelFSM</title>
<polygon fill="white" stroke="white" points="-4,5 -4,-538 912,-538 912,5 -4,5"/>
<!-- 0 -->
<g id="node1" class="node"><title>0</title>
<a xlink:title="{&#39;EmailSignupModel&#39;: {&#39;activeEmails&#39;: set([]), &#39;mode&#39;: &#39;Inactive&#39;, &#39;pendingEmails&#39;: set([])}}">
<ellipse fill="lightgray" stroke="black" cx="372" cy="-512" rx="27" ry="18"/>
<ellipse fill="none" stroke="black" cx="372" cy="-512" rx="31" ry="22"/>
<text text-anchor="middle" x="372" y="-507.9" font-family="Times Roman,serif" font-size="14.00">0</text>
</a>
</g>
<!-- 1 -->
<g id="node2" class="node"><title>1</title>
<a xlink:title="{&#39;EmailSignupModel&#39;: {&#39;activeEmails&#39;: set([]), &#39;mode&#39;: &#39;Running&#39;, &#39;pendingEmails&#39;: set([])}}">
<ellipse fill="white" stroke="black" cx="372" cy="-414" rx="27" ry="18"/>
<ellipse fill="none" stroke="black" cx="372" cy="-414" rx="31" ry="22"/>
<text text-anchor="middle" x="372" y="-409.9" font-family="Times Roman,serif" font-size="14.00">1</text>
</a>
</g>
<!-- 0&#45;&gt;1 -->
<g id="edge2" class="edge"><title>0&#45;&gt;1</title>
<a xlink:title="Initialize()">
<path fill="none" stroke="black" d="M372,-489.762C372,-476.982 372,-460.697 372,-446.504"/>
<polygon fill="black" stroke="black" points="375.5,-446.15 372,-436.15 368.5,-446.15 375.5,-446.15"/>
</a>
<text text-anchor="middle" x="408.5" y="-458.9" font-family="Times Roman,serif" font-size="14.00">Initialize()</text>
</g>
<!-- 2 -->
<g id="node3" class="node"><title>2</title>
<a xlink:title="{&#39;EmailSignupModel&#39;: {&#39;activeEmails&#39;: set([]), &#39;mode&#39;: &#39;Running&#39;, &#39;pendingEmails&#39;: set([&#39;OleBrumm&#39;])}}">
<ellipse fill="white" stroke="black" cx="257" cy="-316" rx="27" ry="18"/>
<ellipse fill="none" stroke="black" cx="257" cy="-316" rx="31" ry="22"/>
<text text-anchor="middle" x="257" y="-311.9" font-family="Times Roman,serif" font-size="14.00">2</text>
</a>
</g>
<!-- 1&#45;&gt;2 -->
<g id="edge4" class="edge"><title>1&#45;&gt;2</title>
<a xlink:title="Recv(&#39;OleBrumm&#39;,)/&#39;pending&#39;">
<path fill="none" stroke="black" d="M342.313,-407.618C312.021,-400.439 268.067,-387.945 258,-374 252.603,-366.525 250.939,-356.979 251.027,-347.799"/>
<polygon fill="black" stroke="black" points="254.525,-347.949 251.766,-337.72 247.544,-347.438 254.525,-347.949"/>
</a>
<text text-anchor="middle" x="362" y="-360.9" font-family="Times Roman,serif" font-size="14.00">Recv(&#39;OleBrumm&#39;,)/&#39;pending&#39;</text>
</g>
<!-- 3 -->
<g id="node4" class="node"><title>3</title>
<a xlink:title="{&#39;EmailSignupModel&#39;: {&#39;activeEmails&#39;: set([]), &#39;mode&#39;: &#39;Running&#39;, &#39;pendingEmails&#39;: set([&#39;VinniPuhh&#39;])}}">
<ellipse fill="white" stroke="black" cx="488" cy="-316" rx="27" ry="18"/>
<ellipse fill="none" stroke="black" cx="488" cy="-316" rx="31" ry="22"/>
<text text-anchor="middle" x="488" y="-311.9" font-family="Times Roman,serif" font-size="14.00">3</text>
</a>
</g>
<!-- 1&#45;&gt;3 -->
<g id="edge6" class="edge"><title>1&#45;&gt;3</title>
<a xlink:title="Recv(&#39;VinniPuhh&#39;,)/&#39;pending&#39;">
<path fill="none" stroke="black" d="M401.812,-407.832C422.295,-402.187 448.795,-391.903 466,-374 473.034,-366.681 477.87,-356.888 481.174,-347.436"/>
<polygon fill="black" stroke="black" points="484.535,-348.413 484.09,-337.828 477.837,-346.38 484.535,-348.413"/>
</a>
<text text-anchor="middle" x="579" y="-360.9" font-family="Times Roman,serif" font-size="14.00">Recv(&#39;VinniPuhh&#39;,)/&#39;pending&#39;</text>
</g>
<!-- 4 -->
<g id="node5" class="node"><title>4</title>
<a xlink:title="{&#39;EmailSignupModel&#39;: {&#39;activeEmails&#39;: set([&#39;OleBrumm&#39;]), &#39;mode&#39;: &#39;Running&#39;, &#39;pendingEmails&#39;: set([])}}">
<ellipse fill="white" stroke="black" cx="31" cy="-218" rx="27" ry="18"/>
<ellipse fill="none" stroke="black" cx="31" cy="-218" rx="31" ry="22"/>
<text text-anchor="middle" x="31" y="-213.9" font-family="Times Roman,serif" font-size="14.00">4</text>
</a>
</g>
<!-- 2&#45;&gt;4 -->
<g id="edge8" class="edge"><title>2&#45;&gt;4</title>
<a xlink:title="Recv(&#39;OleBrumm&#39;,)/&#39;activate&#39;">
<path fill="none" stroke="black" d="M225.704,-314.262C172.936,-310.678 69.5088,-300.635 44,-276 37.0225,-269.262 33.4163,-259.652 31.6464,-250.188"/>
<polygon fill="black" stroke="black" points="35.1002,-249.6 30.374,-240.118 28.1554,-250.478 35.1002,-249.6"/>
</a>
<text text-anchor="middle" x="147" y="-262.9" font-family="Times Roman,serif" font-size="14.00">Recv(&#39;OleBrumm&#39;,)/&#39;activate&#39;</text>
</g>
<!-- 5 -->
<g id="node6" class="node"><title>5</title>
<a xlink:title="{&#39;EmailSignupModel&#39;: {&#39;activeEmails&#39;: set([]), &#39;mode&#39;: &#39;Running&#39;, &#39;pendingEmails&#39;: set([&#39;OleBrumm&#39;, &#39;VinniPuhh&#39;])}}">
<ellipse fill="white" stroke="black" cx="372" cy="-218" rx="27" ry="18"/>
<ellipse fill="none" stroke="black" cx="372" cy="-218" rx="31" ry="22"/>
<text text-anchor="middle" x="372" y="-213.9" font-family="Times Roman,serif" font-size="14.00">5</text>
</a>
</g>
<!-- 2&#45;&gt;5 -->
<g id="edge10" class="edge"><title>2&#45;&gt;5</title>
<a xlink:title="Recv(&#39;VinniPuhh&#39;,)/&#39;pending&#39;">
<path fill="none" stroke="black" d="M252.668,-294.205C251.571,-282.402 252.416,-268.192 260,-258 268.986,-245.924 304.069,-234.628 332.606,-227.141"/>
<polygon fill="black" stroke="black" points="333.545,-230.514 342.374,-224.656 331.819,-223.73 333.545,-230.514"/>
</a>
<text text-anchor="middle" x="362" y="-262.9" font-family="Times Roman,serif" font-size="14.00">Recv(&#39;VinniPuhh&#39;,)/&#39;pending&#39;</text>
</g>
<!-- 3&#45;&gt;5 -->
<g id="edge14" class="edge"><title>3&#45;&gt;5</title>
<a xlink:title="Recv(&#39;OleBrumm&#39;,)/&#39;pending&#39;">
<path fill="none" stroke="black" d="M483.248,-294.181C479.681,-282.224 473.699,-267.873 464,-258 449.788,-243.533 429.472,-233.952 411.545,-227.804"/>
<polygon fill="black" stroke="black" points="412.475,-224.427 401.885,-224.733 410.354,-231.098 412.475,-224.427"/>
</a>
<text text-anchor="middle" x="579" y="-262.9" font-family="Times Roman,serif" font-size="14.00">Recv(&#39;OleBrumm&#39;,)/&#39;pending&#39;</text>
</g>
<!-- 6 -->
<g id="node7" class="node"><title>6</title>
<a xlink:title="{&#39;EmailSignupModel&#39;: {&#39;activeEmails&#39;: set([&#39;VinniPuhh&#39;]), &#39;mode&#39;: &#39;Running&#39;, &#39;pendingEmails&#39;: set([])}}">
<ellipse fill="white" stroke="black" cx="716" cy="-218" rx="27" ry="18"/>
<ellipse fill="none" stroke="black" cx="716" cy="-218" rx="31" ry="22"/>
<text text-anchor="middle" x="716" y="-213.9" font-family="Times Roman,serif" font-size="14.00">6</text>
</a>
</g>
<!-- 3&#45;&gt;6 -->
<g id="edge12" class="edge"><title>3&#45;&gt;6</title>
<a xlink:title="Recv(&#39;VinniPuhh&#39;,)/&#39;activate&#39;">
<path fill="none" stroke="black" d="M519.056,-313.087C568.212,-307.936 661.035,-295.852 687,-276 695.811,-269.264 702.135,-259.123 706.582,-249.195"/>
<polygon fill="black" stroke="black" points="709.851,-250.446 710.289,-239.86 703.345,-247.862 709.851,-250.446"/>
</a>
<text text-anchor="middle" x="802.5" y="-262.9" font-family="Times Roman,serif" font-size="14.00">Recv(&#39;VinniPuhh&#39;,)/&#39;activate&#39;</text>
</g>
<!-- 7 -->
<g id="node8" class="node"><title>7</title>
<a xlink:title="{&#39;EmailSignupModel&#39;: {&#39;activeEmails&#39;: set([&#39;OleBrumm&#39;]), &#39;mode&#39;: &#39;Running&#39;, &#39;pendingEmails&#39;: set([&#39;VinniPuhh&#39;])}}">
<ellipse fill="white" stroke="black" cx="259" cy="-120" rx="27" ry="18"/>
<ellipse fill="none" stroke="black" cx="259" cy="-120" rx="31" ry="22"/>
<text text-anchor="middle" x="259" y="-115.9" font-family="Times Roman,serif" font-size="14.00">7</text>
</a>
</g>
<!-- 4&#45;&gt;7 -->
<g id="edge16" class="edge"><title>4&#45;&gt;7</title>
<a xlink:title="Recv(&#39;VinniPuhh&#39;,)/&#39;pending&#39;">
<path fill="none" stroke="black" d="M31.2057,-195.818C32.5243,-183.591 36.2743,-169.091 46,-160 70.3381,-137.25 162.928,-126.834 217.697,-122.574"/>
<polygon fill="black" stroke="black" points="218.074,-126.056 227.787,-121.826 217.556,-119.075 218.074,-126.056"/>
</a>
<text text-anchor="middle" x="148" y="-164.9" font-family="Times Roman,serif" font-size="14.00">Recv(&#39;VinniPuhh&#39;,)/&#39;pending&#39;</text>
</g>
<!-- 5&#45;&gt;7 -->
<g id="edge18" class="edge"><title>5&#45;&gt;7</title>
<a xlink:title="Recv(&#39;OleBrumm&#39;,)/&#39;activate&#39;">
<path fill="none" stroke="black" d="M342.281,-211.411C312.535,-204.149 269.812,-191.671 260,-178 254.624,-170.51 252.965,-160.96 253.053,-151.78"/>
<polygon fill="black" stroke="black" points="256.551,-151.933 253.788,-141.704 249.569,-151.423 256.551,-151.933"/>
</a>
<text text-anchor="middle" x="363" y="-164.9" font-family="Times Roman,serif" font-size="14.00">Recv(&#39;OleBrumm&#39;,)/&#39;activate&#39;</text>
</g>
<!-- 8 -->
<g id="node9" class="node"><title>8</title>
<a xlink:title="{&#39;EmailSignupModel&#39;: {&#39;activeEmails&#39;: set([&#39;VinniPuhh&#39;]), &#39;mode&#39;: &#39;Running&#39;, &#39;pendingEmails&#39;: set([&#39;OleBrumm&#39;])}}">
<ellipse fill="white" stroke="black" cx="488" cy="-120" rx="27" ry="18"/>
<ellipse fill="none" stroke="black" cx="488" cy="-120" rx="31" ry="22"/>
<text text-anchor="middle" x="488" y="-115.9" font-family="Times Roman,serif" font-size="14.00">8</text>
</a>
</g>
<!-- 5&#45;&gt;8 -->
<g id="edge20" class="edge"><title>5&#45;&gt;8</title>
<a xlink:title="Recv(&#39;VinniPuhh&#39;,)/&#39;activate&#39;">
<path fill="none" stroke="black" d="M401.812,-211.832C422.295,-206.187 448.795,-195.903 466,-178 473.034,-170.681 477.87,-160.888 481.174,-151.436"/>
<polygon fill="black" stroke="black" points="484.535,-152.413 484.09,-141.828 477.837,-150.38 484.535,-152.413"/>
</a>
<text text-anchor="middle" x="578.5" y="-164.9" font-family="Times Roman,serif" font-size="14.00">Recv(&#39;VinniPuhh&#39;,)/&#39;activate&#39;</text>
</g>
<!-- 6&#45;&gt;8 -->
<g id="edge22" class="edge"><title>6&#45;&gt;8</title>
<a xlink:title="Recv(&#39;OleBrumm&#39;,)/&#39;pending&#39;">
<path fill="none" stroke="black" d="M709.244,-196.402C704.233,-183.903 696.138,-168.924 684,-160 659.837,-142.235 579.063,-130.234 529.064,-124.305"/>
<polygon fill="black" stroke="black" points="529.229,-120.801 518.894,-123.133 528.427,-127.755 529.229,-120.801"/>
</a>
<text text-anchor="middle" x="803" y="-164.9" font-family="Times Roman,serif" font-size="14.00">Recv(&#39;OleBrumm&#39;,)/&#39;pending&#39;</text>
</g>
<!-- 9 -->
<g id="node10" class="node"><title>9</title>
<a xlink:title="{&#39;EmailSignupModel&#39;: {&#39;activeEmails&#39;: set([&#39;OleBrumm&#39;, &#39;VinniPuhh&#39;]), &#39;mode&#39;: &#39;Running&#39;, &#39;pendingEmails&#39;: set([])}}">
<ellipse fill="lightgreen" stroke="black" cx="373" cy="-22" rx="27" ry="18"/>
<ellipse fill="none" stroke="black" cx="373" cy="-22" rx="31" ry="22"/>
<text text-anchor="middle" x="373" y="-17.9" font-family="Times Roman,serif" font-size="14.00">9</text>
</a>
</g>
<!-- 7&#45;&gt;9 -->
<g id="edge24" class="edge"><title>7&#45;&gt;9</title>
<a xlink:title="Recv(&#39;VinniPuhh&#39;,)/&#39;activate&#39;">
<path fill="none" stroke="black" d="M254.679,-98.2137C253.585,-86.4129 254.43,-72.2031 262,-62 270.832,-50.0956 305.154,-38.867 333.323,-31.3547"/>
<polygon fill="black" stroke="black" points="334.557,-34.6509 343.364,-28.7608 332.806,-27.8734 334.557,-34.6509"/>
</a>
<text text-anchor="middle" x="363.5" y="-66.9" font-family="Times Roman,serif" font-size="14.00">Recv(&#39;VinniPuhh&#39;,)/&#39;activate&#39;</text>
</g>
<!-- 8&#45;&gt;9 -->
<g id="edge26" class="edge"><title>8&#45;&gt;9</title>
<a xlink:title="Recv(&#39;OleBrumm&#39;,)/&#39;activate&#39;">
<path fill="none" stroke="black" d="M483.654,-98.1901C480.303,-86.2365 474.568,-71.8849 465,-62 450.896,-47.4285 430.589,-37.8372 412.64,-31.7104"/>
<polygon fill="black" stroke="black" points="413.556,-28.329 402.966,-28.6533 411.446,-35.0037 413.556,-28.329"/>
</a>
<text text-anchor="middle" x="579" y="-66.9" font-family="Times Roman,serif" font-size="14.00">Recv(&#39;OleBrumm&#39;,)/&#39;activate&#39;</text>
</g>
</g>
</svg>
