<?xml version="1.0" encoding="UTF-8" standalone="no"?>
<!DOCTYPE svg PUBLIC "-//W3C//DTD SVG 1.1//EN"
 "http://www.w3.org/Graphics/SVG/1.1/DTD/svg11.dtd">
<!-- Generated by graphviz version 2.24.0 (20090616.2323)
 -->
<!-- Title: EmailSignupModelFSM Pages: 1 -->
<svg width="2587pt" height="738pt"
 viewBox="0.00 0.00 2586.62 738.00" xmlns="http://www.w3.org/2000/svg" xmlns:xlink="http://www.w3.org/1999/xlink">
<g id="graph1" class="graph" transform="scale(1 1) rotate(0) translate(4 734)">
<title>EmailSignupModelFSM</title>
<polygon fill="white" stroke="white" points="-4,5 -4,-734 2583.62,-734 2583.62,5 -4,5"/>
<!-- 0 -->
<g id="node1" class="node"><title>0</title>
<a xlink:title="{&#39;EmailSignupModel&#39;: {&#39;activeEmails&#39;: set([]), &#39;mode&#39;: &#39;Inactive&#39;, &#39;pendingEmails&#39;: set([])}}">
<ellipse fill="lightgray" stroke="black" cx="1130.62" cy="-708" rx="27" ry="18"/>
<ellipse fill="none" stroke="black" cx="1130.62" cy="-708" rx="31" ry="22"/>
<text text-anchor="middle" x="1130.62" y="-703.9" font-family="Times Roman,serif" font-size="14.00">0</text>
</a>
</g>
<!-- 1 -->
<g id="node2" class="node"><title>1</title>
<a xlink:title="{&#39;EmailSignupModel&#39;: {&#39;activeEmails&#39;: set([]), &#39;mode&#39;: &#39;Running&#39;, &#39;pendingEmails&#39;: set([])}}">
<ellipse fill="white" stroke="black" cx="1130.62" cy="-610" rx="27" ry="18"/>
<ellipse fill="none" stroke="black" cx="1130.62" cy="-610" rx="31" ry="22"/>
<text text-anchor="middle" x="1130.62" y="-605.9" font-family="Times Roman,serif" font-size="14.00">1</text>
</a>
</g>
<!-- 0&#45;&gt;1 -->
<g id="edge2" class="edge"><title>0&#45;&gt;1</title>
<a xlink:title="Initialize()">
<path fill="none" stroke="black" d="M1130.62,-685.762C1130.62,-672.982 1130.62,-656.697 1130.62,-642.504"/>
<polygon fill="black" stroke="black" points="1134.12,-642.15 1130.62,-632.15 1127.12,-642.15 1134.12,-642.15"/>
</a>
<text text-anchor="middle" x="1167.12" y="-654.9" font-family="Times Roman,serif" font-size="14.00">Initialize()</text>
</g>
<!-- 2 -->
<g id="node3" class="node"><title>2</title>
<a xlink:title="{&#39;EmailSignupModel&#39;: {&#39;activeEmails&#39;: set([]), &#39;mode&#39;: &#39;Running&#39;, &#39;pendingEmails&#39;: set([&#39;C&#39;])}}">
<ellipse fill="white" stroke="black" cx="721.616" cy="-512" rx="27" ry="18"/>
<ellipse fill="none" stroke="black" cx="721.616" cy="-512" rx="31" ry="22"/>
<text text-anchor="middle" x="721.616" y="-507.9" font-family="Times Roman,serif" font-size="14.00">2</text>
</a>
</g>
<!-- 1&#45;&gt;2 -->
<g id="edge4" class="edge"><title>1&#45;&gt;2</title>
<a xlink:title="Recv(&#39;C&#39;,)/&#39;pending&#39;">
<path fill="none" stroke="black" d="M1101.2,-602.952C1028.92,-585.633 842.568,-540.981 760.922,-521.418"/>
<polygon fill="black" stroke="black" points="761.578,-517.976 751.038,-519.05 759.947,-524.784 761.578,-517.976"/>
</a>
<text text-anchor="middle" x="1034.12" y="-556.9" font-family="Times Roman,serif" font-size="14.00">Recv(&#39;C&#39;,)/&#39;pending&#39;</text>
</g>
<!-- 3 -->
<g id="node4" class="node"><title>3</title>
<a xlink:title="{&#39;EmailSignupModel&#39;: {&#39;activeEmails&#39;: set([]), &#39;mode&#39;: &#39;Running&#39;, &#39;pendingEmails&#39;: set([&#39;B&#39;])}}">
<ellipse fill="white" stroke="black" cx="1130.62" cy="-512" rx="27" ry="18"/>
<ellipse fill="none" stroke="black" cx="1130.62" cy="-512" rx="31" ry="22"/>
<text text-anchor="middle" x="1130.62" y="-507.9" font-family="Times Roman,serif" font-size="14.00">3</text>
</a>
</g>
<!-- 1&#45;&gt;3 -->
<g id="edge6" class="edge"><title>1&#45;&gt;3</title>
<a xlink:title="Recv(&#39;B&#39;,)/&#39;pending&#39;">
<path fill="none" stroke="black" d="M1130.62,-587.762C1130.62,-574.982 1130.62,-558.697 1130.62,-544.504"/>
<polygon fill="black" stroke="black" points="1134.12,-544.15 1130.62,-534.15 1127.12,-544.15 1134.12,-544.15"/>
</a>
<text text-anchor="middle" x="1201.12" y="-556.9" font-family="Times Roman,serif" font-size="14.00">Recv(&#39;B&#39;,)/&#39;pending&#39;</text>
</g>
<!-- 4 -->
<g id="node5" class="node"><title>4</title>
<a xlink:title="{&#39;EmailSignupModel&#39;: {&#39;activeEmails&#39;: set([]), &#39;mode&#39;: &#39;Running&#39;, &#39;pendingEmails&#39;: set([&#39;A&#39;])}}">
<ellipse fill="white" stroke="black" cx="1538.62" cy="-512" rx="27" ry="18"/>
<ellipse fill="none" stroke="black" cx="1538.62" cy="-512" rx="31" ry="22"/>
<text text-anchor="middle" x="1538.62" y="-507.9" font-family="Times Roman,serif" font-size="14.00">4</text>
</a>
</g>
<!-- 1&#45;&gt;4 -->
<g id="edge8" class="edge"><title>1&#45;&gt;4</title>
<a xlink:title="Recv(&#39;A&#39;,)/&#39;pending&#39;">
<path fill="none" stroke="black" d="M1160.29,-602.873C1232.56,-585.513 1417.76,-541.029 1499.19,-521.469"/>
<polygon fill="black" stroke="black" points="1500.15,-524.839 1509.06,-519.1 1498.52,-518.033 1500.15,-524.839"/>
</a>
<text text-anchor="middle" x="1440.62" y="-556.9" font-family="Times Roman,serif" font-size="14.00">Recv(&#39;A&#39;,)/&#39;pending&#39;</text>
</g>
<!-- 5 -->
<g id="node6" class="node"><title>5</title>
<a xlink:title="{&#39;EmailSignupModel&#39;: {&#39;activeEmails&#39;: set([]), &#39;mode&#39;: &#39;Running&#39;, &#39;pendingEmails&#39;: set([&#39;C&#39;, &#39;B&#39;])}}">
<ellipse fill="white" stroke="black" cx="639.616" cy="-414" rx="27" ry="18"/>
<ellipse fill="none" stroke="black" cx="639.616" cy="-414" rx="31" ry="22"/>
<text text-anchor="middle" x="639.616" y="-409.9" font-family="Times Roman,serif" font-size="14.00">5</text>
</a>
</g>
<!-- 2&#45;&gt;5 -->
<g id="edge10" class="edge"><title>2&#45;&gt;5</title>
<a xlink:title="Recv(&#39;B&#39;,)/&#39;pending&#39;">
<path fill="none" stroke="black" d="M691.624,-505.501C673.528,-499.881 651.863,-489.754 640.616,-472 635.813,-464.418 634.233,-455.085 634.214,-446.14"/>
<polygon fill="black" stroke="black" points="637.72,-446.132 634.809,-435.945 630.732,-445.724 637.72,-446.132"/>
</a>
<text text-anchor="middle" x="711.116" y="-458.9" font-family="Times Roman,serif" font-size="14.00">Recv(&#39;B&#39;,)/&#39;pending&#39;</text>
</g>
<!-- 6 -->
<g id="node7" class="node"><title>6</title>
<a xlink:title="{&#39;EmailSignupModel&#39;: {&#39;activeEmails&#39;: set([]), &#39;mode&#39;: &#39;Running&#39;, &#39;pendingEmails&#39;: set([&#39;A&#39;, &#39;C&#39;])}}">
<ellipse fill="white" stroke="black" cx="1190.62" cy="-414" rx="27" ry="18"/>
<ellipse fill="none" stroke="black" cx="1190.62" cy="-414" rx="31" ry="22"/>
<text text-anchor="middle" x="1190.62" y="-409.9" font-family="Times Roman,serif" font-size="14.00">6</text>
</a>
</g>
<!-- 2&#45;&gt;6 -->
<g id="edge12" class="edge"><title>2&#45;&gt;6</title>
<a xlink:title="Recv(&#39;A&#39;,)/&#39;pending&#39;">
<path fill="none" stroke="black" d="M752.671,-510.162C796.847,-506.731 879.774,-497.243 945.616,-472 959.781,-466.57 960.258,-458.897 974.616,-454 1049.04,-428.617 1075.55,-459.416 1150.62,-436 1153.07,-435.236 1155.54,-434.313 1157.98,-433.284"/>
<polygon fill="black" stroke="black" points="1159.67,-436.355 1167.2,-428.9 1156.67,-430.034 1159.67,-436.355"/>
</a>
<text text-anchor="middle" x="1045.62" y="-458.9" font-family="Times Roman,serif" font-size="14.00">Recv(&#39;A&#39;,)/&#39;pending&#39;</text>
</g>
<!-- 7 -->
<g id="node8" class="node"><title>7</title>
<a xlink:title="{&#39;EmailSignupModel&#39;: {&#39;activeEmails&#39;: set([&#39;C&#39;]), &#39;mode&#39;: &#39;Running&#39;, &#39;pendingEmails&#39;: set([])}}">
<ellipse fill="white" stroke="black" cx="476.616" cy="-414" rx="27" ry="18"/>
<ellipse fill="none" stroke="black" cx="476.616" cy="-414" rx="31" ry="22"/>
<text text-anchor="middle" x="476.616" y="-409.9" font-family="Times Roman,serif" font-size="14.00">7</text>
</a>
</g>
<!-- 2&#45;&gt;7 -->
<g id="edge14" class="edge"><title>2&#45;&gt;7</title>
<a xlink:title="Recv(&#39;C&#39;,)/&#39;activate&#39;">
<path fill="none" stroke="black" d="M690.605,-510.672C634.694,-507.64 520.144,-498.309 491.616,-472 484.429,-465.372 480.498,-455.791 478.4,-446.32"/>
<polygon fill="black" stroke="black" points="481.821,-445.548 476.776,-436.231 474.91,-446.66 481.821,-445.548"/>
</a>
<text text-anchor="middle" x="561.616" y="-458.9" font-family="Times Roman,serif" font-size="14.00">Recv(&#39;C&#39;,)/&#39;activate&#39;</text>
</g>
<!-- 3&#45;&gt;5 -->
<g id="edge16" class="edge"><title>3&#45;&gt;5</title>
<a xlink:title="Recv(&#39;C&#39;,)/&#39;pending&#39;">
<path fill="none" stroke="black" d="M1099.54,-510.71C1027.9,-507.341 853.299,-496.77 800.616,-472 790.089,-467.051 791.731,-459.744 781.616,-454 749.939,-436.011 709.629,-425.664 680.056,-420.02"/>
<polygon fill="black" stroke="black" points="680.539,-416.55 670.075,-418.215 679.293,-423.439 680.539,-416.55"/>
</a>
<text text-anchor="middle" x="871.116" y="-458.9" font-family="Times Roman,serif" font-size="14.00">Recv(&#39;C&#39;,)/&#39;pending&#39;</text>
</g>
<!-- 8 -->
<g id="node9" class="node"><title>8</title>
<a xlink:title="{&#39;EmailSignupModel&#39;: {&#39;activeEmails&#39;: set([]), &#39;mode&#39;: &#39;Running&#39;, &#39;pendingEmails&#39;: set([&#39;A&#39;, &#39;B&#39;])}}">
<ellipse fill="white" stroke="black" cx="1620.62" cy="-414" rx="27" ry="18"/>
<ellipse fill="none" stroke="black" cx="1620.62" cy="-414" rx="31" ry="22"/>
<text text-anchor="middle" x="1620.62" y="-409.9" font-family="Times Roman,serif" font-size="14.00">8</text>
</a>
</g>
<!-- 3&#45;&gt;8 -->
<g id="edge18" class="edge"><title>3&#45;&gt;8</title>
<a xlink:title="Recv(&#39;A&#39;,)/&#39;pending&#39;">
<path fill="none" stroke="black" d="M1160.65,-506.145C1188.74,-499.974 1231.38,-488.794 1265.62,-472 1277.91,-465.97 1277.86,-458.981 1290.62,-454 1342.34,-433.799 1502.79,-421.365 1579.27,-416.436"/>
<polygon fill="black" stroke="black" points="1579.72,-419.915 1589.48,-415.791 1579.28,-412.929 1579.72,-419.915"/>
</a>
<text text-anchor="middle" x="1360.62" y="-458.9" font-family="Times Roman,serif" font-size="14.00">Recv(&#39;A&#39;,)/&#39;pending&#39;</text>
</g>
<!-- 9 -->
<g id="node10" class="node"><title>9</title>
<a xlink:title="{&#39;EmailSignupModel&#39;: {&#39;activeEmails&#39;: set([&#39;B&#39;]), &#39;mode&#39;: &#39;Running&#39;, &#39;pendingEmails&#39;: set([])}}">
<ellipse fill="white" stroke="black" cx="1110.62" cy="-414" rx="27" ry="18"/>
<ellipse fill="none" stroke="black" cx="1110.62" cy="-414" rx="31" ry="22"/>
<text text-anchor="middle" x="1110.62" y="-409.9" font-family="Times Roman,serif" font-size="14.00">9</text>
</a>
</g>
<!-- 3&#45;&gt;9 -->
<g id="edge20" class="edge"><title>3&#45;&gt;9</title>
<a xlink:title="Recv(&#39;B&#39;,)/&#39;activate&#39;">
<path fill="none" stroke="black" d="M1126.08,-489.762C1123.43,-476.766 1120.03,-460.145 1117.1,-445.785"/>
<polygon fill="black" stroke="black" points="1120.5,-444.91 1115.07,-435.812 1113.64,-446.31 1120.5,-444.91"/>
</a>
<text text-anchor="middle" x="1191.62" y="-458.9" font-family="Times Roman,serif" font-size="14.00">Recv(&#39;B&#39;,)/&#39;activate&#39;</text>
</g>
<!-- 4&#45;&gt;6 -->
<g id="edge22" class="edge"><title>4&#45;&gt;6</title>
<a xlink:title="Recv(&#39;C&#39;,)/&#39;pending&#39;">
<path fill="none" stroke="black" d="M1511.01,-501.643C1493.77,-494.551 1471.53,-484.232 1453.62,-472 1444.01,-465.44 1445.04,-459.169 1434.62,-454 1399.7,-436.681 1291.54,-423.805 1231.62,-417.784"/>
<polygon fill="black" stroke="black" points="1231.67,-414.272 1221.37,-416.774 1230.98,-421.238 1231.67,-414.272"/>
</a>
<text text-anchor="middle" x="1524.12" y="-458.9" font-family="Times Roman,serif" font-size="14.00">Recv(&#39;C&#39;,)/&#39;pending&#39;</text>
</g>
<!-- 4&#45;&gt;8 -->
<g id="edge24" class="edge"><title>4&#45;&gt;8</title>
<a xlink:title="Recv(&#39;B&#39;,)/&#39;pending&#39;">
<path fill="none" stroke="black" d="M1564.4,-499.561C1576.17,-492.796 1589.49,-483.457 1598.62,-472 1604.78,-464.268 1609.35,-454.623 1612.68,-445.431"/>
<polygon fill="black" stroke="black" points="1616.06,-446.34 1615.82,-435.748 1609.4,-444.179 1616.06,-446.34"/>
</a>
<text text-anchor="middle" x="1679.12" y="-458.9" font-family="Times Roman,serif" font-size="14.00">Recv(&#39;B&#39;,)/&#39;pending&#39;</text>
</g>
<!-- 10 -->
<g id="node11" class="node"><title>10</title>
<a xlink:title="{&#39;EmailSignupModel&#39;: {&#39;activeEmails&#39;: set([&#39;A&#39;]), &#39;mode&#39;: &#39;Running&#39;, &#39;pendingEmails&#39;: set([])}}">
<ellipse fill="white" stroke="black" cx="2128.62" cy="-414" rx="27" ry="18"/>
<ellipse fill="none" stroke="black" cx="2128.62" cy="-414" rx="31" ry="22"/>
<text text-anchor="middle" x="2128.62" y="-409.9" font-family="Times Roman,serif" font-size="14.00">10</text>
</a>
</g>
<!-- 4&#45;&gt;10 -->
<g id="edge26" class="edge"><title>4&#45;&gt;10</title>
<a xlink:title="Recv(&#39;A&#39;,)/&#39;activate&#39;">
<path fill="none" stroke="black" d="M1569.09,-506.937C1667.5,-490.591 1976.83,-439.212 2088.18,-420.717"/>
<polygon fill="black" stroke="black" points="2089.03,-424.124 2098.32,-419.032 2087.88,-417.218 2089.03,-424.124"/>
</a>
<text text-anchor="middle" x="1955.12" y="-458.9" font-family="Times Roman,serif" font-size="14.00">Recv(&#39;A&#39;,)/&#39;activate&#39;</text>
</g>
<!-- 11 -->
<g id="node12" class="node"><title>11</title>
<a xlink:title="{&#39;EmailSignupModel&#39;: {&#39;activeEmails&#39;: set([]), &#39;mode&#39;: &#39;Running&#39;, &#39;pendingEmails&#39;: set([&#39;A&#39;, &#39;C&#39;, &#39;B&#39;])}}">
<ellipse fill="white" stroke="black" cx="1150.62" cy="-316" rx="27" ry="18"/>
<ellipse fill="none" stroke="black" cx="1150.62" cy="-316" rx="31" ry="22"/>
<text text-anchor="middle" x="1150.62" y="-311.9" font-family="Times Roman,serif" font-size="14.00">11</text>
</a>
</g>
<!-- 5&#45;&gt;11 -->
<g id="edge28" class="edge"><title>5&#45;&gt;11</title>
<a xlink:title="Recv(&#39;A&#39;,)/&#39;pending&#39;">
<path fill="none" stroke="black" d="M670.454,-411.198C704.562,-407.049 760.284,-397.099 802.616,-374 812.827,-368.428 811.09,-360.951 821.616,-356 871.778,-332.404 1032.82,-321.667 1109.4,-317.8"/>
<polygon fill="black" stroke="black" points="1109.81,-321.284 1119.63,-317.299 1109.47,-314.293 1109.81,-321.284"/>
</a>
<text text-anchor="middle" x="891.616" y="-360.9" font-family="Times Roman,serif" font-size="14.00">Recv(&#39;A&#39;,)/&#39;pending&#39;</text>
</g>
<!-- 12 -->
<g id="node13" class="node"><title>12</title>
<a xlink:title="{&#39;EmailSignupModel&#39;: {&#39;activeEmails&#39;: set([&#39;C&#39;]), &#39;mode&#39;: &#39;Running&#39;, &#39;pendingEmails&#39;: set([&#39;B&#39;])}}">
<ellipse fill="white" stroke="black" cx="171.616" cy="-316" rx="27" ry="18"/>
<ellipse fill="none" stroke="black" cx="171.616" cy="-316" rx="31" ry="22"/>
<text text-anchor="middle" x="171.616" y="-311.9" font-family="Times Roman,serif" font-size="14.00">12</text>
</a>
</g>
<!-- 5&#45;&gt;12 -->
<g id="edge30" class="edge"><title>5&#45;&gt;12</title>
<a xlink:title="Recv(&#39;C&#39;,)/&#39;activate&#39;">
<path fill="none" stroke="black" d="M609.44,-407.54C584.634,-402.486 548.506,-395.713 516.616,-392 480.362,-387.779 217.219,-396.673 188.616,-374 180.682,-367.711 176.314,-357.924 173.95,-348.169"/>
<polygon fill="black" stroke="black" points="177.365,-347.383 172.148,-338.162 170.476,-348.624 177.365,-347.383"/>
</a>
<text text-anchor="middle" x="258.616" y="-360.9" font-family="Times Roman,serif" font-size="14.00">Recv(&#39;C&#39;,)/&#39;activate&#39;</text>
</g>
<!-- 13 -->
<g id="node14" class="node"><title>13</title>
<a xlink:title="{&#39;EmailSignupModel&#39;: {&#39;activeEmails&#39;: set([&#39;B&#39;]), &#39;mode&#39;: &#39;Running&#39;, &#39;pendingEmails&#39;: set([&#39;C&#39;])}}">
<ellipse fill="white" stroke="black" cx="578.616" cy="-316" rx="27" ry="18"/>
<ellipse fill="none" stroke="black" cx="578.616" cy="-316" rx="31" ry="22"/>
<text text-anchor="middle" x="578.616" y="-311.9" font-family="Times Roman,serif" font-size="14.00">13</text>
</a>
</g>
<!-- 5&#45;&gt;13 -->
<g id="edge32" class="edge"><title>5&#45;&gt;13</title>
<a xlink:title="Recv(&#39;B&#39;,)/&#39;activate&#39;">
<path fill="none" stroke="black" d="M609.392,-407.916C584.558,-403.081 548.416,-396.418 516.616,-392 496.598,-389.219 349.181,-388.981 335.616,-374 330.246,-368.07 330.439,-362.099 335.616,-356 348.518,-340.801 471.618,-326.515 537.486,-319.881"/>
<polygon fill="black" stroke="black" points="537.935,-323.354 547.54,-318.883 537.243,-316.388 537.935,-323.354"/>
</a>
<text text-anchor="middle" x="405.616" y="-360.9" font-family="Times Roman,serif" font-size="14.00">Recv(&#39;B&#39;,)/&#39;activate&#39;</text>
</g>
<!-- 6&#45;&gt;11 -->
<g id="edge34" class="edge"><title>6&#45;&gt;11</title>
<a xlink:title="Recv(&#39;B&#39;,)/&#39;pending&#39;">
<path fill="none" stroke="black" d="M1169.39,-397.903C1162.39,-391.336 1155.42,-383.131 1151.62,-374 1148.28,-366.004 1147.08,-356.832 1146.94,-348.178"/>
<polygon fill="black" stroke="black" points="1150.45,-348.092 1147.25,-337.993 1143.45,-347.885 1150.45,-348.092"/>
</a>
<text text-anchor="middle" x="1222.12" y="-360.9" font-family="Times Roman,serif" font-size="14.00">Recv(&#39;B&#39;,)/&#39;pending&#39;</text>
</g>
<!-- 14 -->
<g id="node15" class="node"><title>14</title>
<a xlink:title="{&#39;EmailSignupModel&#39;: {&#39;activeEmails&#39;: set([&#39;C&#39;]), &#39;mode&#39;: &#39;Running&#39;, &#39;pendingEmails&#39;: set([&#39;A&#39;])}}">
<ellipse fill="white" stroke="black" cx="823.616" cy="-316" rx="27" ry="18"/>
<ellipse fill="none" stroke="black" cx="823.616" cy="-316" rx="31" ry="22"/>
<text text-anchor="middle" x="823.616" y="-311.9" font-family="Times Roman,serif" font-size="14.00">14</text>
</a>
</g>
<!-- 6&#45;&gt;14 -->
<g id="edge36" class="edge"><title>6&#45;&gt;14</title>
<a xlink:title="Recv(&#39;C&#39;,)/&#39;activate&#39;">
<path fill="none" stroke="black" d="M1167.17,-399.181C1161.9,-396.398 1156.2,-393.8 1150.62,-392 1087.55,-371.664 1066.17,-392.751 1002.62,-374 985.076,-368.825 982.707,-362.505 965.616,-356 931.826,-343.139 892.123,-332.299 863.304,-325.162"/>
<polygon fill="black" stroke="black" points="863.754,-321.669 853.209,-322.703 862.097,-328.47 863.754,-321.669"/>
</a>
<text text-anchor="middle" x="1072.62" y="-360.9" font-family="Times Roman,serif" font-size="14.00">Recv(&#39;C&#39;,)/&#39;activate&#39;</text>
</g>
<!-- 15 -->
<g id="node16" class="node"><title>15</title>
<a xlink:title="{&#39;EmailSignupModel&#39;: {&#39;activeEmails&#39;: set([&#39;A&#39;]), &#39;mode&#39;: &#39;Running&#39;, &#39;pendingEmails&#39;: set([&#39;C&#39;])}}">
<ellipse fill="white" stroke="black" cx="1882.62" cy="-316" rx="27" ry="18"/>
<ellipse fill="none" stroke="black" cx="1882.62" cy="-316" rx="31" ry="22"/>
<text text-anchor="middle" x="1882.62" y="-311.9" font-family="Times Roman,serif" font-size="14.00">15</text>
</a>
</g>
<!-- 6&#45;&gt;15 -->
<g id="edge38" class="edge"><title>6&#45;&gt;15</title>
<a xlink:title="Recv(&#39;A&#39;,)/&#39;activate&#39;">
<path fill="none" stroke="black" d="M1221.8,-413.71C1308.11,-412.498 1548.51,-406.24 1619.62,-374 1630.21,-369.197 1628.2,-361.169 1638.62,-356 1656.47,-347.147 1776.77,-330.096 1841.52,-321.394"/>
<polygon fill="black" stroke="black" points="1842.35,-324.816 1851.79,-320.022 1841.42,-317.877 1842.35,-324.816"/>
</a>
<text text-anchor="middle" x="1708.12" y="-360.9" font-family="Times Roman,serif" font-size="14.00">Recv(&#39;A&#39;,)/&#39;activate&#39;</text>
</g>
<!-- 7&#45;&gt;12 -->
<g id="edge40" class="edge"><title>7&#45;&gt;12</title>
<a xlink:title="Recv(&#39;B&#39;,)/&#39;pending&#39;">
<path fill="none" stroke="black" d="M445.341,-413.718C345.332,-412.496 38.1224,-406.136 8.61607,-374 -28.5622,-333.509 70.7202,-321.269 130.355,-317.581"/>
<polygon fill="black" stroke="black" points="130.842,-321.06 140.63,-317.005 130.45,-314.071 130.842,-321.06"/>
</a>
<text text-anchor="middle" x="79.1161" y="-360.9" font-family="Times Roman,serif" font-size="14.00">Recv(&#39;B&#39;,)/&#39;pending&#39;</text>
</g>
<!-- 7&#45;&gt;14 -->
<g id="edge42" class="edge"><title>7&#45;&gt;14</title>
<a xlink:title="Recv(&#39;A&#39;,)/&#39;pending&#39;">
<path fill="none" stroke="black" d="M479.354,-391.961C482.101,-379.465 487.602,-364.643 498.616,-356 504.169,-351.642 696.846,-329.957 782.859,-320.463"/>
<polygon fill="black" stroke="black" points="783.244,-323.942 792.8,-319.368 782.477,-316.985 783.244,-323.942"/>
</a>
<text text-anchor="middle" x="568.616" y="-360.9" font-family="Times Roman,serif" font-size="14.00">Recv(&#39;A&#39;,)/&#39;pending&#39;</text>
</g>
<!-- 8&#45;&gt;11 -->
<g id="edge44" class="edge"><title>8&#45;&gt;11</title>
<a xlink:title="Recv(&#39;C&#39;,)/&#39;pending&#39;">
<path fill="none" stroke="black" d="M1590.27,-409.003C1560.63,-403.319 1514.82,-392.36 1478.62,-374 1467.04,-368.129 1467.59,-361.022 1455.62,-356 1408.85,-336.382 1263.62,-323.858 1191.75,-318.699"/>
<polygon fill="black" stroke="black" points="1191.92,-315.202 1181.7,-317.991 1191.43,-322.185 1191.92,-315.202"/>
</a>
<text text-anchor="middle" x="1549.12" y="-360.9" font-family="Times Roman,serif" font-size="14.00">Recv(&#39;C&#39;,)/&#39;pending&#39;</text>
</g>
<!-- 16 -->
<g id="node17" class="node"><title>16</title>
<a xlink:title="{&#39;EmailSignupModel&#39;: {&#39;activeEmails&#39;: set([&#39;A&#39;]), &#39;mode&#39;: &#39;Running&#39;, &#39;pendingEmails&#39;: set([&#39;B&#39;])}}">
<ellipse fill="white" stroke="black" cx="2291.62" cy="-316" rx="27" ry="18"/>
<ellipse fill="none" stroke="black" cx="2291.62" cy="-316" rx="31" ry="22"/>
<text text-anchor="middle" x="2291.62" y="-311.9" font-family="Times Roman,serif" font-size="14.00">16</text>
</a>
</g>
<!-- 8&#45;&gt;16 -->
<g id="edge46" class="edge"><title>8&#45;&gt;16</title>
<a xlink:title="Recv(&#39;A&#39;,)/&#39;activate&#39;">
<path fill="none" stroke="black" d="M1651.61,-411.404C1719.26,-405.508 1878.19,-390.348 1929.62,-374 1945.91,-368.82 1947.3,-361.12 1963.62,-356 2016.22,-339.49 2174.73,-325.223 2250.47,-319.138"/>
<polygon fill="black" stroke="black" points="2250.89,-322.615 2260.58,-318.334 2250.34,-315.637 2250.89,-322.615"/>
</a>
<text text-anchor="middle" x="2033.12" y="-360.9" font-family="Times Roman,serif" font-size="14.00">Recv(&#39;A&#39;,)/&#39;activate&#39;</text>
</g>
<!-- 17 -->
<g id="node18" class="node"><title>17</title>
<a xlink:title="{&#39;EmailSignupModel&#39;: {&#39;activeEmails&#39;: set([&#39;B&#39;]), &#39;mode&#39;: &#39;Running&#39;, &#39;pendingEmails&#39;: set([&#39;A&#39;])}}">
<ellipse fill="white" stroke="black" cx="1679.62" cy="-316" rx="27" ry="18"/>
<ellipse fill="none" stroke="black" cx="1679.62" cy="-316" rx="31" ry="22"/>
<text text-anchor="middle" x="1679.62" y="-311.9" font-family="Times Roman,serif" font-size="14.00">17</text>
</a>
</g>
<!-- 8&#45;&gt;17 -->
<g id="edge48" class="edge"><title>8&#45;&gt;17</title>
<a xlink:title="Recv(&#39;B&#39;,)/&#39;activate&#39;">
<path fill="none" stroke="black" d="M1651.59,-410.789C1693.75,-405.707 1765.78,-394.249 1781.62,-374 1801.75,-348.257 1756.6,-332.002 1720.07,-323.453"/>
<polygon fill="black" stroke="black" points="1720.58,-319.981 1710.06,-321.244 1719.07,-326.816 1720.58,-319.981"/>
</a>
<text text-anchor="middle" x="1855.62" y="-360.9" font-family="Times Roman,serif" font-size="14.00">Recv(&#39;B&#39;,)/&#39;activate&#39;</text>
</g>
<!-- 9&#45;&gt;13 -->
<g id="edge50" class="edge"><title>9&#45;&gt;13</title>
<a xlink:title="Recv(&#39;C&#39;,)/&#39;pending&#39;">
<path fill="none" stroke="black" d="M1079.47,-412.437C983.418,-407.453 695.904,-391.246 657.616,-374 647.01,-369.223 647.711,-363.252 638.616,-356 629.938,-349.079 620.073,-342.154 610.886,-336.058"/>
<polygon fill="black" stroke="black" points="612.634,-333.02 602.345,-330.495 608.814,-338.886 612.634,-333.02"/>
</a>
<text text-anchor="middle" x="728.116" y="-360.9" font-family="Times Roman,serif" font-size="14.00">Recv(&#39;C&#39;,)/&#39;pending&#39;</text>
</g>
<!-- 9&#45;&gt;17 -->
<g id="edge52" class="edge"><title>9&#45;&gt;17</title>
<a xlink:title="Recv(&#39;A&#39;,)/&#39;pending&#39;">
<path fill="none" stroke="black" d="M1134.06,-399.203C1139.34,-396.418 1145.04,-393.814 1150.62,-392 1211.11,-372.323 1235.12,-401.225 1292.62,-374 1303.13,-369.022 1301.06,-360.884 1311.62,-356 1368.88,-329.508 1554.79,-320.123 1638.32,-317.188"/>
<polygon fill="black" stroke="black" points="1638.58,-320.681 1648.45,-316.846 1638.34,-313.685 1638.58,-320.681"/>
</a>
<text text-anchor="middle" x="1381.62" y="-360.9" font-family="Times Roman,serif" font-size="14.00">Recv(&#39;A&#39;,)/&#39;pending&#39;</text>
</g>
<!-- 10&#45;&gt;15 -->
<g id="edge54" class="edge"><title>10&#45;&gt;15</title>
<a xlink:title="Recv(&#39;C&#39;,)/&#39;pending&#39;">
<path fill="none" stroke="black" d="M2125.64,-391.889C2122.81,-379.528 2117.31,-364.87 2106.62,-356 2079.42,-333.444 1980.88,-322.88 1923.96,-318.563"/>
<polygon fill="black" stroke="black" points="1924.07,-315.061 1913.85,-317.827 1923.57,-322.043 1924.07,-315.061"/>
</a>
<text text-anchor="middle" x="2189.12" y="-360.9" font-family="Times Roman,serif" font-size="14.00">Recv(&#39;C&#39;,)/&#39;pending&#39;</text>
</g>
<!-- 10&#45;&gt;16 -->
<g id="edge56" class="edge"><title>10&#45;&gt;16</title>
<a xlink:title="Recv(&#39;B&#39;,)/&#39;pending&#39;">
<path fill="none" stroke="black" d="M2158.92,-408.81C2195.59,-401.974 2254.44,-389.041 2270.62,-374 2278.07,-367.073 2282.88,-357.3 2285.99,-347.747"/>
<polygon fill="black" stroke="black" points="2289.39,-348.568 2288.65,-338 2282.64,-346.726 2289.39,-348.568"/>
</a>
<text text-anchor="middle" x="2353.12" y="-360.9" font-family="Times Roman,serif" font-size="14.00">Recv(&#39;B&#39;,)/&#39;pending&#39;</text>
</g>
<!-- 18 -->
<g id="node19" class="node"><title>18</title>
<a xlink:title="{&#39;EmailSignupModel&#39;: {&#39;activeEmails&#39;: set([&#39;C&#39;]), &#39;mode&#39;: &#39;Running&#39;, &#39;pendingEmails&#39;: set([&#39;A&#39;, &#39;B&#39;])}}">
<ellipse fill="white" stroke="black" cx="825.616" cy="-218" rx="27" ry="18"/>
<ellipse fill="none" stroke="black" cx="825.616" cy="-218" rx="31" ry="22"/>
<text text-anchor="middle" x="825.616" y="-213.9" font-family="Times Roman,serif" font-size="14.00">18</text>
</a>
</g>
<!-- 11&#45;&gt;18 -->
<g id="edge58" class="edge"><title>11&#45;&gt;18</title>
<a xlink:title="Recv(&#39;C&#39;,)/&#39;activate&#39;">
<path fill="none" stroke="black" d="M1121,-309.088C1091.61,-301.925 1045.48,-289.848 1006.62,-276 987.87,-269.32 984.338,-264.749 965.616,-258 932.153,-245.937 893.177,-235.049 864.86,-227.69"/>
<polygon fill="black" stroke="black" points="865.495,-224.24 854.939,-225.143 863.754,-231.02 865.495,-224.24"/>
</a>
<text text-anchor="middle" x="1076.62" y="-262.9" font-family="Times Roman,serif" font-size="14.00">Recv(&#39;C&#39;,)/&#39;activate&#39;</text>
</g>
<!-- 19 -->
<g id="node20" class="node"><title>19</title>
<a xlink:title="{&#39;EmailSignupModel&#39;: {&#39;activeEmails&#39;: set([&#39;A&#39;]), &#39;mode&#39;: &#39;Running&#39;, &#39;pendingEmails&#39;: set([&#39;C&#39;, &#39;B&#39;])}}">
<ellipse fill="white" stroke="black" cx="1802.62" cy="-218" rx="27" ry="18"/>
<ellipse fill="none" stroke="black" cx="1802.62" cy="-218" rx="31" ry="22"/>
<text text-anchor="middle" x="1802.62" y="-213.9" font-family="Times Roman,serif" font-size="14.00">19</text>
</a>
</g>
<!-- 11&#45;&gt;19 -->
<g id="edge60" class="edge"><title>11&#45;&gt;19</title>
<a xlink:title="Recv(&#39;A&#39;,)/&#39;activate&#39;">
<path fill="none" stroke="black" d="M1181.68,-314.529C1279.65,-309.727 1577.99,-293.786 1617.62,-276 1628.23,-271.237 1626.39,-263.55 1636.62,-258 1675.81,-236.721 1726.26,-226.638 1761.21,-221.94"/>
<polygon fill="black" stroke="black" points="1762.04,-225.364 1771.53,-220.649 1761.17,-218.418 1762.04,-225.364"/>
</a>
<text text-anchor="middle" x="1706.12" y="-262.9" font-family="Times Roman,serif" font-size="14.00">Recv(&#39;A&#39;,)/&#39;activate&#39;</text>
</g>
<!-- 20 -->
<g id="node21" class="node"><title>20</title>
<a xlink:title="{&#39;EmailSignupModel&#39;: {&#39;activeEmails&#39;: set([&#39;B&#39;]), &#39;mode&#39;: &#39;Running&#39;, &#39;pendingEmails&#39;: set([&#39;A&#39;, &#39;C&#39;])}}">
<ellipse fill="white" stroke="black" cx="1150.62" cy="-218" rx="27" ry="18"/>
<ellipse fill="none" stroke="black" cx="1150.62" cy="-218" rx="31" ry="22"/>
<text text-anchor="middle" x="1150.62" y="-213.9" font-family="Times Roman,serif" font-size="14.00">20</text>
</a>
</g>
<!-- 11&#45;&gt;20 -->
<g id="edge62" class="edge"><title>11&#45;&gt;20</title>
<a xlink:title="Recv(&#39;B&#39;,)/&#39;activate&#39;">
<path fill="none" stroke="black" d="M1150.62,-293.762C1150.62,-280.982 1150.62,-264.697 1150.62,-250.504"/>
<polygon fill="black" stroke="black" points="1154.12,-250.15 1150.62,-240.15 1147.12,-250.15 1154.12,-250.15"/>
</a>
<text text-anchor="middle" x="1220.62" y="-262.9" font-family="Times Roman,serif" font-size="14.00">Recv(&#39;B&#39;,)/&#39;activate&#39;</text>
</g>
<!-- 12&#45;&gt;18 -->
<g id="edge64" class="edge"><title>12&#45;&gt;18</title>
<a xlink:title="Recv(&#39;A&#39;,)/&#39;pending&#39;">
<path fill="none" stroke="black" d="M200.975,-308.366C229.633,-300.751 274.381,-288.426 312.616,-276 334.681,-268.829 338.97,-263.041 361.616,-258 382.116,-253.437 675.051,-229.927 784.639,-221.235"/>
<polygon fill="black" stroke="black" points="784.965,-224.72 794.657,-220.441 784.412,-217.742 784.965,-224.72"/>
</a>
<text text-anchor="middle" x="431.616" y="-262.9" font-family="Times Roman,serif" font-size="14.00">Recv(&#39;A&#39;,)/&#39;pending&#39;</text>
</g>
<!-- 21 -->
<g id="node22" class="node"><title>21</title>
<a xlink:title="{&#39;EmailSignupModel&#39;: {&#39;activeEmails&#39;: set([&#39;C&#39;, &#39;B&#39;]), &#39;mode&#39;: &#39;Running&#39;, &#39;pendingEmails&#39;: set([])}}">
<ellipse fill="white" stroke="black" cx="497.616" cy="-218" rx="27" ry="18"/>
<ellipse fill="none" stroke="black" cx="497.616" cy="-218" rx="31" ry="22"/>
<text text-anchor="middle" x="497.616" y="-213.9" font-family="Times Roman,serif" font-size="14.00">21</text>
</a>
</g>
<!-- 12&#45;&gt;21 -->
<g id="edge66" class="edge"><title>12&#45;&gt;21</title>
<a xlink:title="Recv(&#39;B&#39;,)/&#39;activate&#39;">
<path fill="none" stroke="black" d="M165.649,-294.186C163.743,-282.082 163.993,-267.582 172.616,-258 191.329,-237.206 373.395,-224.741 456.556,-220.09"/>
<polygon fill="black" stroke="black" points="456.87,-223.578 466.663,-219.536 456.487,-216.589 456.87,-223.578"/>
</a>
<text text-anchor="middle" x="242.616" y="-262.9" font-family="Times Roman,serif" font-size="14.00">Recv(&#39;B&#39;,)/&#39;activate&#39;</text>
</g>
<!-- 13&#45;&gt;20 -->
<g id="edge68" class="edge"><title>13&#45;&gt;20</title>
<a xlink:title="Recv(&#39;A&#39;,)/&#39;pending&#39;">
<path fill="none" stroke="black" d="M609.345,-312.72C662.517,-306.682 769.203,-292.87 802.616,-276 813,-270.757 811.09,-262.951 821.616,-258 871.778,-234.404 1032.82,-223.667 1109.4,-219.8"/>
<polygon fill="black" stroke="black" points="1109.81,-223.284 1119.63,-219.299 1109.47,-216.293 1109.81,-223.284"/>
</a>
<text text-anchor="middle" x="891.616" y="-262.9" font-family="Times Roman,serif" font-size="14.00">Recv(&#39;A&#39;,)/&#39;pending&#39;</text>
</g>
<!-- 13&#45;&gt;21 -->
<g id="edge70" class="edge"><title>13&#45;&gt;21</title>
<a xlink:title="Recv(&#39;C&#39;,)/&#39;activate&#39;">
<path fill="none" stroke="black" d="M551.662,-304.736C538.771,-298.102 524.115,-288.53 514.616,-276 508.905,-268.466 505.108,-259.052 502.586,-250.013"/>
<polygon fill="black" stroke="black" points="505.947,-249.018 500.245,-240.089 499.134,-250.625 505.947,-249.018"/>
</a>
<text text-anchor="middle" x="584.616" y="-262.9" font-family="Times Roman,serif" font-size="14.00">Recv(&#39;C&#39;,)/&#39;activate&#39;</text>
</g>
<!-- 14&#45;&gt;18 -->
<g id="edge72" class="edge"><title>14&#45;&gt;18</title>
<a xlink:title="Recv(&#39;B&#39;,)/&#39;pending&#39;">
<path fill="none" stroke="black" d="M792.803,-312.861C750.436,-307.836 677.602,-296.413 661.616,-276 656.684,-269.702 656.675,-264.291 661.616,-258 676.657,-238.85 741.276,-227.707 784.77,-222.245"/>
<polygon fill="black" stroke="black" points="785.276,-225.709 794.786,-221.039 784.44,-218.759 785.276,-225.709"/>
</a>
<text text-anchor="middle" x="732.116" y="-262.9" font-family="Times Roman,serif" font-size="14.00">Recv(&#39;B&#39;,)/&#39;pending&#39;</text>
</g>
<!-- 22 -->
<g id="node23" class="node"><title>22</title>
<a xlink:title="{&#39;EmailSignupModel&#39;: {&#39;activeEmails&#39;: set([&#39;A&#39;, &#39;C&#39;]), &#39;mode&#39;: &#39;Running&#39;, &#39;pendingEmails&#39;: set([])}}">
<ellipse fill="white" stroke="black" cx="1313.62" cy="-218" rx="27" ry="18"/>
<ellipse fill="none" stroke="black" cx="1313.62" cy="-218" rx="31" ry="22"/>
<text text-anchor="middle" x="1313.62" y="-213.9" font-family="Times Roman,serif" font-size="14.00">22</text>
</a>
</g>
<!-- 14&#45;&gt;22 -->
<g id="edge74" class="edge"><title>14&#45;&gt;22</title>
<a xlink:title="Recv(&#39;A&#39;,)/&#39;activate&#39;">
<path fill="none" stroke="black" d="M854.721,-313.562C958.594,-305.392 1287.23,-279.309 1291.62,-276 1300,-269.673 1305.18,-259.752 1308.4,-249.892"/>
<polygon fill="black" stroke="black" points="1311.79,-250.754 1310.99,-240.189 1305.03,-248.943 1311.79,-250.754"/>
</a>
<text text-anchor="middle" x="1374.12" y="-262.9" font-family="Times Roman,serif" font-size="14.00">Recv(&#39;A&#39;,)/&#39;activate&#39;</text>
</g>
<!-- 15&#45;&gt;19 -->
<g id="edge76" class="edge"><title>15&#45;&gt;19</title>
<a xlink:title="Recv(&#39;B&#39;,)/&#39;pending&#39;">
<path fill="none" stroke="black" d="M1909.16,-304.624C1930.97,-293.634 1956.23,-276.044 1942.62,-258 1930.58,-242.044 1880,-230.538 1843.08,-224.072"/>
<polygon fill="black" stroke="black" points="1843.51,-220.596 1833.07,-222.383 1842.35,-227.499 1843.51,-220.596"/>
</a>
<text text-anchor="middle" x="2016.12" y="-262.9" font-family="Times Roman,serif" font-size="14.00">Recv(&#39;B&#39;,)/&#39;pending&#39;</text>
</g>
<!-- 15&#45;&gt;22 -->
<g id="edge78" class="edge"><title>15&#45;&gt;22</title>
<a xlink:title="Recv(&#39;C&#39;,)/&#39;activate&#39;">
<path fill="none" stroke="black" d="M1854.96,-305.428C1837.98,-298.321 1816.2,-288.063 1798.62,-276 1789.02,-269.419 1790.23,-262.764 1779.62,-258 1741.35,-240.82 1461.29,-225.315 1354.67,-219.973"/>
<polygon fill="black" stroke="black" points="1354.77,-216.474 1344.61,-219.474 1354.43,-223.465 1354.77,-216.474"/>
</a>
<text text-anchor="middle" x="1868.62" y="-262.9" font-family="Times Roman,serif" font-size="14.00">Recv(&#39;C&#39;,)/&#39;activate&#39;</text>
</g>
<!-- 16&#45;&gt;19 -->
<g id="edge80" class="edge"><title>16&#45;&gt;19</title>
<a xlink:title="Recv(&#39;C&#39;,)/&#39;pending&#39;">
<path fill="none" stroke="black" d="M2282.67,-294.663C2276.07,-281.761 2265.78,-266.257 2251.62,-258 2242.84,-252.88 1952.48,-229.717 1843.44,-221.176"/>
<polygon fill="black" stroke="black" points="1843.72,-217.687 1833.47,-220.396 1843.17,-224.665 1843.72,-217.687"/>
</a>
<text text-anchor="middle" x="2341.12" y="-262.9" font-family="Times Roman,serif" font-size="14.00">Recv(&#39;C&#39;,)/&#39;pending&#39;</text>
</g>
<!-- 23 -->
<g id="node24" class="node"><title>23</title>
<a xlink:title="{&#39;EmailSignupModel&#39;: {&#39;activeEmails&#39;: set([&#39;A&#39;, &#39;B&#39;]), &#39;mode&#39;: &#39;Running&#39;, &#39;pendingEmails&#39;: set([])}}">
<ellipse fill="white" stroke="black" cx="2128.62" cy="-218" rx="27" ry="18"/>
<ellipse fill="none" stroke="black" cx="2128.62" cy="-218" rx="31" ry="22"/>
<text text-anchor="middle" x="2128.62" y="-213.9" font-family="Times Roman,serif" font-size="14.00">23</text>
</a>
</g>
<!-- 16&#45;&gt;23 -->
<g id="edge82" class="edge"><title>16&#45;&gt;23</title>
<a xlink:title="Recv(&#39;B&#39;,)/&#39;activate&#39;">
<path fill="none" stroke="black" d="M2322.72,-313.853C2373.52,-309.228 2465.52,-295.512 2432.62,-258 2415.55,-238.538 2248.91,-225.558 2169.85,-220.446"/>
<polygon fill="black" stroke="black" points="2169.95,-216.945 2159.75,-219.805 2169.51,-223.931 2169.95,-216.945"/>
</a>
<text text-anchor="middle" x="2508.62" y="-262.9" font-family="Times Roman,serif" font-size="14.00">Recv(&#39;B&#39;,)/&#39;activate&#39;</text>
</g>
<!-- 17&#45;&gt;20 -->
<g id="edge84" class="edge"><title>17&#45;&gt;20</title>
<a xlink:title="Recv(&#39;C&#39;,)/&#39;pending&#39;">
<path fill="none" stroke="black" d="M1648.73,-313.4C1608.07,-309.204 1534.94,-298.96 1476.62,-276 1462.5,-270.443 1461.97,-262.905 1447.62,-258 1374.05,-232.859 1350.6,-250.852 1273.62,-240 1245.92,-236.096 1214.93,-230.545 1190.98,-225.995"/>
<polygon fill="black" stroke="black" points="1191.33,-222.498 1180.84,-224.05 1190.01,-229.372 1191.33,-222.498"/>
</a>
<text text-anchor="middle" x="1547.12" y="-262.9" font-family="Times Roman,serif" font-size="14.00">Recv(&#39;C&#39;,)/&#39;pending&#39;</text>
</g>
<!-- 17&#45;&gt;23 -->
<g id="edge86" class="edge"><title>17&#45;&gt;23</title>
<a xlink:title="Recv(&#39;A&#39;,)/&#39;activate&#39;">
<path fill="none" stroke="black" d="M1710.19,-311.3C1742.9,-306.406 1796.32,-298.8 1842.62,-294 1897.58,-288.302 2042.99,-304.011 2090.62,-276 2101.37,-269.675 2109.65,-258.965 2115.69,-248.458"/>
<polygon fill="black" stroke="black" points="2118.89,-249.875 2120.42,-239.391 2112.69,-246.632 2118.89,-249.875"/>
</a>
<text text-anchor="middle" x="2178.12" y="-262.9" font-family="Times Roman,serif" font-size="14.00">Recv(&#39;A&#39;,)/&#39;activate&#39;</text>
</g>
<!-- 24 -->
<g id="node25" class="node"><title>24</title>
<a xlink:title="{&#39;EmailSignupModel&#39;: {&#39;activeEmails&#39;: set([&#39;A&#39;, &#39;C&#39;]), &#39;mode&#39;: &#39;Running&#39;, &#39;pendingEmails&#39;: set([&#39;B&#39;])}}">
<ellipse fill="white" stroke="black" cx="1313.62" cy="-120" rx="27" ry="18"/>
<ellipse fill="none" stroke="black" cx="1313.62" cy="-120" rx="31" ry="22"/>
<text text-anchor="middle" x="1313.62" y="-115.9" font-family="Times Roman,serif" font-size="14.00">24</text>
</a>
</g>
<!-- 18&#45;&gt;24 -->
<g id="edge88" class="edge"><title>18&#45;&gt;24</title>
<a xlink:title="Recv(&#39;A&#39;,)/&#39;activate&#39;">
<path fill="none" stroke="black" d="M856.142,-213.694C885.866,-208.528 931.565,-197.948 966.616,-178 976.726,-172.246 975.091,-164.953 985.616,-160 1035.56,-136.495 1195.78,-125.725 1272.24,-121.826"/>
<polygon fill="black" stroke="black" points="1272.64,-125.31 1282.46,-121.321 1272.3,-118.319 1272.64,-125.31"/>
</a>
<text text-anchor="middle" x="1056.12" y="-164.9" font-family="Times Roman,serif" font-size="14.00">Recv(&#39;A&#39;,)/&#39;activate&#39;</text>
</g>
<!-- 25 -->
<g id="node26" class="node"><title>25</title>
<a xlink:title="{&#39;EmailSignupModel&#39;: {&#39;activeEmails&#39;: set([&#39;C&#39;, &#39;B&#39;]), &#39;mode&#39;: &#39;Running&#39;, &#39;pendingEmails&#39;: set([&#39;A&#39;])}}">
<ellipse fill="white" stroke="black" cx="906.616" cy="-120" rx="27" ry="18"/>
<ellipse fill="none" stroke="black" cx="906.616" cy="-120" rx="31" ry="22"/>
<text text-anchor="middle" x="906.616" y="-115.9" font-family="Times Roman,serif" font-size="14.00">25</text>
</a>
</g>
<!-- 18&#45;&gt;25 -->
<g id="edge90" class="edge"><title>18&#45;&gt;25</title>
<a xlink:title="Recv(&#39;B&#39;,)/&#39;activate&#39;">
<path fill="none" stroke="black" d="M820.83,-196.069C819.517,-184.504 819.959,-170.566 826.616,-160 835.801,-145.421 852.055,-135.965 867.524,-129.93"/>
<polygon fill="black" stroke="black" points="868.713,-133.222 876.984,-126.6 866.389,-126.619 868.713,-133.222"/>
</a>
<text text-anchor="middle" x="896.616" y="-164.9" font-family="Times Roman,serif" font-size="14.00">Recv(&#39;B&#39;,)/&#39;activate&#39;</text>
</g>
<!-- 19&#45;&gt;24 -->
<g id="edge92" class="edge"><title>19&#45;&gt;24</title>
<a xlink:title="Recv(&#39;C&#39;,)/&#39;activate&#39;">
<path fill="none" stroke="black" d="M1771.53,-215.351C1736.82,-211.329 1679.86,-201.481 1636.62,-178 1626.39,-172.45 1628.12,-165.003 1617.62,-160 1571.98,-138.26 1426.76,-126.762 1354.81,-122.274"/>
<polygon fill="black" stroke="black" points="1354.95,-118.776 1344.75,-121.663 1354.52,-125.763 1354.95,-118.776"/>
</a>
<text text-anchor="middle" x="1706.62" y="-164.9" font-family="Times Roman,serif" font-size="14.00">Recv(&#39;C&#39;,)/&#39;activate&#39;</text>
</g>
<!-- 26 -->
<g id="node27" class="node"><title>26</title>
<a xlink:title="{&#39;EmailSignupModel&#39;: {&#39;activeEmails&#39;: set([&#39;A&#39;, &#39;B&#39;]), &#39;mode&#39;: &#39;Running&#39;, &#39;pendingEmails&#39;: set([&#39;C&#39;])}}">
<ellipse fill="white" stroke="black" cx="1639.62" cy="-120" rx="27" ry="18"/>
<ellipse fill="none" stroke="black" cx="1639.62" cy="-120" rx="31" ry="22"/>
<text text-anchor="middle" x="1639.62" y="-115.9" font-family="Times Roman,serif" font-size="14.00">26</text>
</a>
</g>
<!-- 19&#45;&gt;26 -->
<g id="edge94" class="edge"><title>19&#45;&gt;26</title>
<a xlink:title="Recv(&#39;B&#39;,)/&#39;activate&#39;">
<path fill="none" stroke="black" d="M1799.23,-195.989C1796.27,-183.819 1790.77,-169.319 1780.62,-160 1765.88,-146.478 1716.06,-134.478 1679.81,-127.231"/>
<polygon fill="black" stroke="black" points="1680.47,-123.794 1669.99,-125.316 1679.13,-130.665 1680.47,-123.794"/>
</a>
<text text-anchor="middle" x="1862.62" y="-164.9" font-family="Times Roman,serif" font-size="14.00">Recv(&#39;B&#39;,)/&#39;activate&#39;</text>
</g>
<!-- 20&#45;&gt;25 -->
<g id="edge96" class="edge"><title>20&#45;&gt;25</title>
<a xlink:title="Recv(&#39;C&#39;,)/&#39;activate&#39;">
<path fill="none" stroke="black" d="M1147.63,-195.895C1144.8,-183.536 1139.3,-168.878 1128.62,-160 1101.68,-137.618 1004.01,-126.985 947.595,-122.61"/>
<polygon fill="black" stroke="black" points="947.801,-119.116 937.569,-121.864 947.282,-126.096 947.801,-119.116"/>
</a>
<text text-anchor="middle" x="1210.62" y="-164.9" font-family="Times Roman,serif" font-size="14.00">Recv(&#39;C&#39;,)/&#39;activate&#39;</text>
</g>
<!-- 20&#45;&gt;26 -->
<g id="edge98" class="edge"><title>20&#45;&gt;26</title>
<a xlink:title="Recv(&#39;A&#39;,)/&#39;activate&#39;">
<path fill="none" stroke="black" d="M1180.84,-211.912C1205.67,-207.074 1241.81,-200.41 1273.62,-196 1354.13,-184.836 1381.68,-211.772 1455.62,-178 1466.2,-173.167 1464.4,-165.557 1474.62,-160 1513.57,-138.815 1563.72,-128.715 1598.46,-123.988"/>
<polygon fill="black" stroke="black" points="1599.23,-127.418 1608.71,-122.688 1598.35,-120.474 1599.23,-127.418"/>
</a>
<text text-anchor="middle" x="1544.12" y="-164.9" font-family="Times Roman,serif" font-size="14.00">Recv(&#39;A&#39;,)/&#39;activate&#39;</text>
</g>
<!-- 21&#45;&gt;25 -->
<g id="edge100" class="edge"><title>21&#45;&gt;25</title>
<a xlink:title="Recv(&#39;A&#39;,)/&#39;pending&#39;">
<path fill="none" stroke="black" d="M525.33,-207.741C560.385,-195.075 622.795,-173.551 677.616,-160 742.68,-143.918 819.694,-131.868 865.776,-125.387"/>
<polygon fill="black" stroke="black" points="866.536,-128.815 875.961,-123.975 865.575,-121.881 866.536,-128.815"/>
</a>
<text text-anchor="middle" x="747.616" y="-164.9" font-family="Times Roman,serif" font-size="14.00">Recv(&#39;A&#39;,)/&#39;pending&#39;</text>
</g>
<!-- 22&#45;&gt;24 -->
<g id="edge102" class="edge"><title>22&#45;&gt;24</title>
<a xlink:title="Recv(&#39;B&#39;,)/&#39;pending&#39;">
<path fill="none" stroke="black" d="M1313.62,-195.762C1313.62,-182.982 1313.62,-166.697 1313.62,-152.504"/>
<polygon fill="black" stroke="black" points="1317.12,-152.15 1313.62,-142.15 1310.12,-152.15 1317.12,-152.15"/>
</a>
<text text-anchor="middle" x="1384.12" y="-164.9" font-family="Times Roman,serif" font-size="14.00">Recv(&#39;B&#39;,)/&#39;pending&#39;</text>
</g>
<!-- 23&#45;&gt;26 -->
<g id="edge104" class="edge"><title>23&#45;&gt;26</title>
<a xlink:title="Recv(&#39;C&#39;,)/&#39;pending&#39;">
<path fill="none" stroke="black" d="M2100.68,-208.024C2063.64,-195.151 1996,-172.882 1936.62,-160 1846.39,-140.427 1738.54,-128.769 1680.85,-123.458"/>
<polygon fill="black" stroke="black" points="1680.96,-119.953 1670.68,-122.54 1680.33,-126.925 1680.96,-119.953"/>
</a>
<text text-anchor="middle" x="2076.12" y="-164.9" font-family="Times Roman,serif" font-size="14.00">Recv(&#39;C&#39;,)/&#39;pending&#39;</text>
</g>
<!-- 27 -->
<g id="node28" class="node"><title>27</title>
<a xlink:title="{&#39;EmailSignupModel&#39;: {&#39;activeEmails&#39;: set([&#39;A&#39;, &#39;C&#39;, &#39;B&#39;]), &#39;mode&#39;: &#39;Running&#39;, &#39;pendingEmails&#39;: set([])}}">
<ellipse fill="lightgreen" stroke="black" cx="1313.62" cy="-22" rx="27" ry="18"/>
<ellipse fill="none" stroke="black" cx="1313.62" cy="-22" rx="31" ry="22"/>
<text text-anchor="middle" x="1313.62" y="-17.9" font-family="Times Roman,serif" font-size="14.00">27</text>
</a>
</g>
<!-- 24&#45;&gt;27 -->
<g id="edge106" class="edge"><title>24&#45;&gt;27</title>
<a xlink:title="Recv(&#39;B&#39;,)/&#39;activate&#39;">
<path fill="none" stroke="black" d="M1313.62,-97.7623C1313.62,-84.9818 1313.62,-68.6973 1313.62,-54.5036"/>
<polygon fill="black" stroke="black" points="1317.12,-54.1497 1313.62,-44.1497 1310.12,-54.1497 1317.12,-54.1497"/>
</a>
<text text-anchor="middle" x="1383.62" y="-66.9" font-family="Times Roman,serif" font-size="14.00">Recv(&#39;B&#39;,)/&#39;activate&#39;</text>
</g>
<!-- 25&#45;&gt;27 -->
<g id="edge108" class="edge"><title>25&#45;&gt;27</title>
<a xlink:title="Recv(&#39;A&#39;,)/&#39;activate&#39;">
<path fill="none" stroke="black" d="M936.214,-112.873C1008.31,-95.5128 1193.06,-51.0287 1274.29,-31.469"/>
<polygon fill="black" stroke="black" points="1275.23,-34.8439 1284.13,-29.1001 1273.59,-28.0384 1275.23,-34.8439"/>
</a>
<text text-anchor="middle" x="1215.12" y="-66.9" font-family="Times Roman,serif" font-size="14.00">Recv(&#39;A&#39;,)/&#39;activate&#39;</text>
</g>
<!-- 26&#45;&gt;27 -->
<g id="edge110" class="edge"><title>26&#45;&gt;27</title>
<a xlink:title="Recv(&#39;C&#39;,)/&#39;activate&#39;">
<path fill="none" stroke="black" d="M1611.35,-110.628C1575.65,-98.8763 1512.28,-78.2958 1457.62,-62 1422.14,-51.4237 1381.48,-40.2116 1352.43,-32.3577"/>
<polygon fill="black" stroke="black" points="1353.23,-28.9495 1342.67,-29.7262 1351.41,-35.7083 1353.23,-28.9495"/>
</a>
<text text-anchor="middle" x="1582.62" y="-66.9" font-family="Times Roman,serif" font-size="14.00">Recv(&#39;C&#39;,)/&#39;activate&#39;</text>
</g>
</g>
</svg>
